<?xml version="1.0" encoding="utf-8"?>
<svg xmlns="http://www.w3.org/2000/svg" width="1254" height="1254" viewBox="0 0 1254 1254">
  <ellipse style="stroke: rgb(0, 0, 0); stroke-width: 0px; fill: rgb(237, 237, 237);" cx="635.402" cy="618.597" rx="606.602" ry="592.202"/>
  <path fill="#040303" fill-rule="nonzero" d="M 768.236 453.367 L 766.717 452.282 C 766.447 451.753 766.274 450.737 766.717 450.216 L 778.332 436.656 L 787.013 421.898 L 790.702 410.83 L 791.301 399.927 L 759.555 395.204 L 738.72 389.996 L 714.63 381.097 L 697.268 371.548 L 678.552 356.409 L 668.621 344.637 L 660.808 332.484 L 652.127 312.517 L 648.437 298.844 L 645.833 281.482 L 645.781 258.964 C 645.772 254.597 646.579 250.682 647.569 245.994 C 648.784 240.256 650.191 233.033 652.995 227.113 L 660.808 210.619 L 669.003 198.847 L 678.552 188.43 L 696.4 175.027 L 711.158 167.214 L 736.116 158.316 L 754.346 153.975 C 771.647 149.86 787.907 148.358 807.248 146.978 C 830.522 145.311 860.906 145.129 884.51 146.11 C 904.563 146.943 921.725 148.046 940.016 151.371 L 959.115 154.843 L 985.158 161.788 L 1013.59 175.027 L 1026.23 184.09 L 1038.38 196.243 L 1047.44 208.883 L 1052.65 219.3 L 1058.95 237.313 L 1062.47 262.436 L 1061.55 281.482 L 1057.21 304.053 L 1052.65 317.726 L 1045.71 332.484 L 1033.17 350.332 L 1020.15 363.353 L 1006.64 373.285 L 986.677 383.702 L 957.379 393.468 L 930.467 398.677 C 923.028 400.118 917.281 400.665 907.897 401.281 C 892.444 402.288 857.225 384.856 846.365 402.253 L 837.363 416.69 L 828.3 427.593 C 823.838 432.967 818.23 437.203 812.188 440.997 C 805.773 445.016 798.368 448.992 790.702 450.763 L 779.417 453.367 L 768.236 453.367 Z M 851.574 271.933 L 842.025 268.565 C 840.861 268.157 840.228 270.423 839.099 270.848 C 837.919 271.282 836.347 271.508 835.08 271.065 C 833.604 270.544 830.965 269.216 830.956 267.376 L 830.739 209.534 C 830.731 207.285 833.804 205.202 835.297 204.542 C 836.287 204.108 837.268 204.221 838.231 204.542 C 839.403 204.933 840.835 205.567 841.704 207.146 C 843.57 210.567 842.676 220.637 843.171 227.391 C 845.098 226.644 846.686 225.472 848.97 225.16 C 852.008 224.752 856.904 224.96 859.934 226.245 C 862.608 227.382 864.865 229.795 866.497 231.835 C 867.903 233.598 868.78 235.082 869.483 237.53 C 870.568 241.324 871.011 248.694 870.62 252.887 C 870.342 255.873 869.596 258.061 868.615 260.431 C 867.643 262.766 866.497 265.257 864.76 266.994 C 863.024 268.73 860.463 270.023 858.198 270.848 C 856.062 271.612 853.683 272.671 851.574 271.933 Z M 981.738 253.868 L 979.185 256.411 L 979.081 265.856 C 979.064 267.193 978.647 268.73 977.614 269.598 C 976.225 270.77 972.874 270.579 970.504 271.065 L 967.249 267.376 L 967.032 209.534 L 971.589 204.542 C 973.308 204.959 975.505 204.742 976.746 205.792 C 978.057 206.903 979.055 209.291 979.081 211.27 L 979.402 240.352 C 984.325 235.36 990.341 226.974 994.16 225.377 C 995.966 224.63 997.485 224.821 998.831 225.377 C 1000.21 225.95 1001.76 227.547 1002.3 228.849 C 1002.78 230.004 1003.17 231.731 1002.3 232.651 L 990.471 245.126 C 994.994 251.854 1003.26 261.134 1004.04 265.31 C 1004.35 266.985 1003.81 268.174 1003.17 269.112 L 1000.57 270.848 C 999.022 271.256 996.652 271.586 994.542 270.466 C 990.618 268.383 986.009 259.398 981.738 253.868 Z M 751.742 271.065 L 748.486 267.376 L 748.165 239.049 C 748.148 238.025 747.037 237.244 746.212 236.662 C 745.353 236.063 744.181 235.377 743.061 235.577 C 741.463 235.872 737.878 237.66 737.852 239.917 L 737.531 267.376 C 737.505 269.216 734.996 270.553 733.407 271.065 C 731.827 271.569 729.336 271.282 728.034 270.466 C 726.862 269.728 725.707 268.192 725.699 266.725 L 725.594 239.917 C 725.586 238.841 724.909 237.756 724.127 237.044 C 723.268 236.254 721.766 235.525 720.49 235.577 C 719.032 235.638 716.905 236.888 715.88 237.912 C 715.073 238.719 714.431 239.709 714.413 240.786 L 714.092 267.376 C 714.066 269.016 712.286 270.553 710.837 271.065 C 709.144 271.655 705.506 270.944 704.274 269.928 C 703.388 269.199 703.067 267.897 703.076 266.777 L 703.345 227.981 C 703.362 226.08 706.904 225.394 708.284 225.108 L 710.62 225.377 L 713.71 228.259 C 715.681 227.226 717.512 225.681 719.622 225.16 C 721.757 224.639 724.197 224.5 726.463 225.16 C 729.102 225.941 731.706 228.528 734.328 230.212 C 736.949 228.528 739.467 225.958 742.193 225.16 C 744.675 224.439 747.775 224.682 749.901 225.16 L 754.025 227.113 C 755.596 228.337 757.324 230.29 758.365 232.322 C 759.485 234.509 760.31 237.304 760.319 239.917 L 760.371 265.909 C 760.371 267.237 759.893 268.739 758.852 269.598 C 757.454 270.761 754.112 270.579 751.742 271.065 Z M 772.307 266.994 L 767.585 259.563 C 766.187 257.358 765.961 254.528 765.631 251.967 C 765.31 249.423 765.189 247.019 765.631 244.258 C 766.187 240.864 767.975 235.768 769.321 233.19 L 771.925 229.717 C 773.965 228.033 778.132 225.889 781.257 225.16 C 784.105 224.509 787.126 224.543 789.834 225.16 C 792.517 225.776 795.329 227.017 797.43 228.849 C 799.644 230.785 801.614 234.257 802.639 236.662 L 803.724 241.654 L 803.507 245.673 L 801.389 249.632 L 799.166 250.882 C 795.685 251.906 784.547 251.819 777.247 252.288 C 778.08 254.424 778.549 257.28 779.738 258.695 C 780.624 259.745 781.648 260.275 782.994 260.648 C 784.799 261.143 787.673 261.195 789.834 260.648 C 792.022 260.092 794.053 257.401 796.015 257.28 C 797.717 257.184 799.913 258.07 800.903 259.233 C 801.866 260.37 802.344 262.679 801.988 264.12 C 801.632 265.553 800.382 266.768 798.784 267.862 C 796.258 269.589 790.616 271.569 787.23 271.933 C 784.686 272.202 782.707 271.768 780.389 271.065 C 777.742 270.258 773.922 269.537 772.307 266.994 Z M 875.881 253.703 L 875.881 242.522 L 879.57 233.19 C 880.473 230.907 882.782 229.327 884.779 227.981 C 886.767 226.653 889.076 225.16 891.507 225.16 L 900.952 225.16 C 903.964 225.16 906.785 227.252 909.034 229.231 C 911.395 231.315 913.357 234.718 914.624 237.53 C 915.744 240.022 916.335 242.331 916.578 245.126 C 916.864 248.477 916.604 253.008 915.71 256.307 C 914.928 259.163 913.496 261.82 912.02 263.903 C 910.753 265.674 909.598 267.02 907.68 268.244 C 905.119 269.867 900.683 271.551 897.479 271.933 C 894.771 272.254 892.219 271.855 889.771 271.065 C 887.244 270.24 884.553 268.782 882.557 266.994 C 880.586 265.223 878.954 262.731 877.834 260.431 C 876.792 258.287 875.881 256.038 875.881 253.703 Z M 949.019 268.244 L 948.698 242.522 C 948.671 240.751 947.777 238.754 946.692 237.591 C 945.685 236.506 944.14 235.655 942.621 235.577 C 940.78 235.49 937.82 236.619 936.379 237.912 C 935.112 239.049 934.053 240.803 934.044 242.522 L 933.992 265.909 L 932.855 269.112 L 929.651 271.117 L 925.363 271.065 L 922.976 269.112 L 921.838 265.909 L 921.838 230.316 C 921.838 228.806 922.75 227.113 923.844 226.245 C 924.998 225.342 927.169 224.804 928.731 225.16 C 930.493 225.568 932.091 227.799 933.775 229.127 C 936.179 227.799 938.463 225.811 940.989 225.16 C 943.437 224.535 946.171 224.422 948.698 225.16 C 951.58 226.01 955.26 228.25 957.162 230.585 C 958.863 232.677 960.044 235.438 960.035 238.129 L 959.983 267.593 C 959.974 269.025 958.386 270.249 957.162 270.848 C 955.851 271.473 953.663 271.543 952.274 271.065 C 950.981 270.614 949.036 269.676 949.019 268.244 Z M 777.785 241.55 C 781.24 242.149 785.511 243.494 788.15 243.338 L 792.169 242.149 L 792.439 240.786 C 792.3 239.779 791.553 237.721 790.433 236.723 C 789.122 235.551 786.379 234.613 784.678 234.657 C 783.306 234.691 782.047 235.256 780.988 236.176 C 779.66 237.322 778.853 239.761 777.785 241.55 Z M 846.096 237.044 L 843.978 239.266 C 843.127 240.69 842.294 242.869 842.025 245.126 C 841.677 248.052 841.99 252.982 842.893 255.439 C 843.483 257.028 844.178 258.113 845.445 258.964 C 847.06 260.049 850.558 260.856 852.338 260.648 L 855.211 259.181 L 858.415 254.571 L 859.335 249.415 L 858.415 241.654 L 856.947 238.78 C 856.027 237.678 854.395 236.306 852.989 235.794 L 848.97 235.577 L 846.096 237.044 Z M 904.207 254.354 L 904.424 243.39 C 904.468 241.237 903.079 238.884 901.551 237.591 C 899.971 236.245 896.854 235.507 894.979 235.577 C 893.547 235.638 892.323 236.228 891.238 237.044 C 890.04 237.956 888.946 239.232 888.251 241.003 C 887.218 243.65 886.767 249.059 887.166 251.967 C 887.444 253.989 888.086 255.552 889.119 256.958 C 890.17 258.382 891.706 259.927 893.46 260.431 C 895.474 261.004 898.92 260.674 900.735 259.563 C 902.41 258.53 904.164 256.438 904.207 254.354 Z M 1046.58 231.453 L 1041.37 219.3 L 1032.69 205.41 L 1024.49 196.243 L 1014.46 188.048 C 1008.03 182.805 1000.77 179.402 992.754 175.895 C 983.7 171.945 973.091 168.733 962.587 166.128 C 951.51 163.385 940.286 161.614 927.863 160.052 C 913.652 158.272 897.271 156.527 881.905 156.527 L 822.006 156.527 C 804.288 156.527 784.495 159.366 769.104 161.788 C 757.011 163.689 747.011 165.773 736.984 168.733 C 727.799 171.45 718.771 174.818 711.158 178.499 C 704.638 181.659 699.517 184.454 693.796 188.916 C 687.042 194.194 679.047 201.912 673.829 208.883 C 669.254 215.003 666.19 221.271 663.412 227.981 C 660.599 234.787 658.446 242.461 657.118 249.467 C 655.894 255.943 655.469 261.959 655.443 268.513 C 655.399 275.492 655.755 282.524 657.118 290.163 C 658.707 299.07 661.693 310.347 665.148 318.594 C 668.065 325.547 671.425 331.06 675.565 336.824 C 679.88 342.823 684.819 348.63 690.705 353.804 C 697.103 359.43 704.664 365.411 712.894 368.944 L 731.124 376.757 C 738.824 380.056 745.978 381.879 755.214 383.919 C 767.289 386.575 792.317 387.756 797.647 390.1 L 800.034 392.053 L 801.172 396.124 C 801.545 399.614 801.805 406.733 800.251 411.698 L 795.694 426.239 C 794.114 431.265 787.69 437.611 787.551 439.799 L 788.15 441.162 L 804.375 434.052 L 818.751 423.253 L 829.55 410.613 C 834.056 405.335 833.925 396.68 840.506 392.921 C 851.322 386.757 878.997 392.991 896.663 391.784 C 912.541 390.699 927.038 390.056 941.753 386.523 L 963.455 381.314 L 983.205 374.153 C 992.58 370.75 1001.87 364.82 1009.25 359.395 C 1015.59 354.724 1021.06 350.245 1025.36 344.255 L 1034.42 331.615 L 1041.37 318.594 L 1045.92 306.657 L 1050.27 288.427 C 1052.48 279.138 1052.66 269.303 1052.05 259.832 C 1051.45 250.317 1050.37 240.308 1046.58 231.453 Z M 926.179 1085.4 L 760.423 1085.35 L 751.959 1083.39 C 748.287 1082.54 745.049 1079.95 742.47 1077.27 C 739.805 1074.49 737.114 1070.83 736.333 1066.9 L 734.328 1056.75 L 734.328 859.693 L 737.201 846.94 L 743.66 837.773 L 751.959 833.051 L 760.371 831.045 L 887.062 831.097 C 889.041 831.097 890.161 831.827 892.54 833.432 C 899.198 837.921 914.529 855.352 925.528 866.316 L 930.789 861.698 L 955.373 849.927 C 945.147 846.15 930.615 841.818 924.712 838.589 C 922.038 837.122 921.135 835.872 919.347 834.518 L 955.312 797.458 L 910.501 815.367 L 908.279 815.098 C 907.68 814.673 906.846 813.579 907.133 812.763 L 911.69 800.063 L 932.855 755.251 L 932.256 753.897 C 929.868 755.234 928.245 755.338 925.094 757.907 C 915.458 765.764 891.524 796.607 874.744 815.966 C 873.962 815.185 873.051 815.081 872.408 813.631 C 870.229 808.7 871.974 779.653 870.568 775.539 L 869.535 774.08 C 867.096 774.636 863.745 774.914 862.208 775.756 L 860.472 777.492 C 857.798 781.485 851.435 799.125 846.912 809.942 L 844.846 809.073 C 842.025 806.53 836.165 793.3 831.824 785.418 L 831.555 817.156 L 829.819 819.656 C 819.315 809.646 806.111 791.694 798.298 789.645 C 794.652 788.699 792.187 791.199 789.131 791.98 L 799.383 815.471 L 797.647 817.972 L 763.357 800.063 C 770.371 808.744 782.733 822.008 784.409 826.106 L 784.626 828.389 L 780.606 827.304 C 778.028 825.906 774.017 822.295 771.439 819.109 L 747.401 789.324 L 748.269 787.692 C 751.542 785.392 772.628 784.845 784.626 782.379 L 843.657 770.226 L 912.237 751.127 L 936.327 742.229 L 954.557 733.548 L 969.801 722.749 L 977.996 713.582 C 983.43 707.496 986.408 699.927 989.281 691.879 C 992.502 682.842 994.724 671.522 995.575 661.713 C 996.365 652.563 995.957 643.534 994.707 634.905 C 993.5 626.598 991.365 618.481 988.413 610.816 C 985.488 603.22 982.337 595.389 977.128 589.113 L 968.065 578.209 C 966.103 575.84 964.072 574.26 961.12 572.133 C 956.814 569.034 950.208 564.615 944.14 562.202 C 937.976 559.754 931.457 558.095 924.391 557.644 C 916.369 557.141 907.697 558.234 898.452 560.248 C 887.253 562.688 873.676 567.011 862.208 572.619 L 821.407 592.585 L 785.815 613.42 L 753.695 635.122 L 727.166 656.339 C 680.913 693.32 604.824 751.544 594.832 774.887 C 591.741 782.119 595.917 786.893 595.379 791.928 C 594.936 796.034 593.53 799.273 592.609 802.945 L 604.381 797.458 L 636.284 787.692 L 680.453 777.171 L 722.226 765.121 C 724.709 764.409 728.711 763.828 729.935 764.253 L 730.751 765.069 L 729.718 766.536 L 721.254 769.358 C 689.585 779.914 645.017 787.64 624.13 793.769 L 601.889 801.261 C 607.532 803.066 611.447 806.209 618.817 806.686 C 632.073 807.546 656.476 799.125 675.348 796.373 C 694.091 793.639 712.894 792.25 731.671 790.192 C 730.621 788.091 728.555 785.235 728.52 783.898 L 729.119 782.544 L 731.402 783.629 L 742.904 798.057 L 736.88 799.741 C 731.541 800.679 722.252 800.583 712.677 801.582 L 660.591 808.527 L 655.929 822.095 L 651.588 829.908 L 640.789 841.679 L 631.622 847.27 C 629.625 848.485 627.281 848.833 624.894 849.223 C 622.281 849.649 618.843 848.702 616.534 849.545 C 614.555 850.274 613.557 852.557 611.656 853.347 L 600.587 857.904 C 596.325 859.658 590.882 858.269 586.802 857.036 C 583.104 855.916 580.074 851.619 576.983 851.342 C 574.431 851.107 572.139 853.078 569.717 853.946 L 583.876 879.06 L 586.75 889.208 L 586.698 900.442 C 586.68 903.055 585.968 904.799 584.744 908.037 C 582.296 914.488 575.265 926.554 570.525 935.817 L 590.821 945.904 L 606.447 955.453 L 626.9 971.46 L 631.622 978.89 C 633.775 982.29 633.836 987.41 633.627 990.78 C 633.471 993.34 632.794 995.49 631.622 997.45 C 630.415 999.47 628.341 1001.56 626.413 1002.66 C 624.712 1003.62 622.837 1003.25 620.875 1004.07 C 618.349 1005.13 615.901 1008.93 612.741 1008.96 L 599.823 1009.06 C 597.983 1009.08 596.837 1010.45 594.563 1010.74 C 590.639 1011.26 582.965 1007.34 578.121 1009.93 L 570.204 1014.16 C 565.846 1016.49 560.533 1016.05 555.498 1015.95 C 550.168 1015.85 544.837 1014.87 539.056 1013.29 C 532.207 1011.42 525.036 1005.33 517.249 1004.72 L 493.914 1002.88 C 491.866 1002.71 489.869 1001.78 488.055 1000.93 L 483.228 997.94 C 481.466 996.3 479.539 994.23 478.506 991.38 C 477.056 987.33 476.413 981.91 477.42 975.2 C 479.243 963.15 490.668 942.84 496.198 926.268 L 501.623 909.991 L 501.024 908.09 L 488.003 898.219 C 484.643 903.497 481.093 911.163 477.915 914.062 C 476.153 915.651 474.347 916.441 472.811 916.666 L 469.607 916.067 C 466.595 914.8 459.963 910.781 456.317 906.787 L 443.729 893.011 L 430.708 910.26 L 415.082 926.754 L 410.255 930.608 C 408.302 931.624 405.715 932.683 403.631 932.561 C 401.696 932.449 400.202 931.737 398.154 930.226 C 394.213 927.309 387.632 919.618 383.882 913.246 L 375.201 898.488 L 366.468 879.121 L 341.293 905.051 L 333.862 910.642 L 326.648 909.722 L 322.524 901.692 L 321.378 901.631 C 318.41 902.707 305.084 918.029 297.401 923.663 C 291.325 928.108 282.001 930.122 279.77 933.812 C 278.494 935.895 278.876 938.274 279.492 940.374 L 284.05 955.783 C 284.597 957.632 285.265 959.082 286.715 960.94 C 289.068 963.95 296.221 966.38 298.27 971.08 L 301.959 979.54 L 301.959 991.59 C 301.959 994.02 300.24 996.67 299.138 998.32 L 296.533 1000.93 C 294.224 1002.36 289.389 1004.93 285.517 1004.67 L 272.495 1003.8 L 266.367 1005.48 L 252.529 1005.53 C 249.951 1005.54 247.346 1004.09 244.933 1004.13 C 242.719 1004.15 240.749 1005.47 238.587 1005.48 L 223.882 1005.53 L 215.148 1003.85 L 199.627 1004.61 L 190.677 1000.54 C 189.001 999.78 188.09 998.29 186.822 996.58 C 185.051 994.18 182.43 990.57 181.613 987.03 L 179.66 978.57 L 179.66 968.26 L 185.086 946.772 L 196.05 923.012 C 198.481 917.726 197.561 911.206 199.844 905.971 C 202.135 900.737 205.087 896.726 209.775 891.596 C 216.876 883.826 230.922 876.577 240.593 865.986 C 252.034 853.451 261.792 835.169 272.391 819.76 L 255.402 810.81 L 247.103 802.615 C 245.141 800.679 243.362 797.632 243.032 795.401 C 242.78 793.665 243.249 791.798 244.117 790.513 C 244.985 789.229 246.296 788.473 248.241 787.692 C 251.8 786.268 259.456 786.954 264.63 784.984 L 276.567 780.426 L 287.47 773.099 L 308.305 752.265 C 308.973 751.596 308.93 750.598 308.904 749.495 L 307.22 743.367 L 308.14 737.342 C 308.956 735.154 311.126 733.349 312.159 730.944 C 313.296 728.27 313.079 724.563 314.434 721.933 C 315.744 719.398 317.507 716.759 320.024 715.37 L 329.521 710.109 L 333.211 697.305 C 335.702 688.641 334.522 679.057 336.787 670.498 C 339.01 662.112 341.866 653.7 346.554 646.408 L 353.012 636.373 L 363.916 625.573 L 376.069 618.628 L 390.237 615.104 C 384.646 608.576 378.535 602.742 373.465 595.52 C 368.065 587.811 363.846 578.513 359.037 570.015 C 353.646 570.197 348.437 571.004 342.864 570.561 C 336.787 570.075 329.903 569.337 323.983 566.872 L 313.566 562.532 L 304.016 556.455 C 298.148 552.713 293.53 547.834 288.772 542.183 C 283.303 535.681 277.739 527.347 273.633 519.126 L 240.106 451.952 L 227.953 431.986 C 219.654 418.357 204.644 402.236 199.844 393.251 C 197.569 388.98 196.337 386.046 196.102 383.103 C 195.929 380.924 196.58 378.875 197.239 377.295 L 199.358 374.205 C 200.807 372.937 203.333 371.001 205.703 371.001 L 222.093 371.001 L 248.136 376.21 L 275.699 385.108 L 298.27 394.657 L 316.5 404.206 L 351.493 428.14 L 363.048 405.075 L 375.583 388.962 L 389.091 377.295 C 394.829 372.347 404.691 370.975 408.519 365.472 C 412.113 360.298 410.047 352.103 412.313 345.826 L 416.002 335.626 L 424.683 319.132 C 428.025 312.786 434.805 306.354 438.955 303.02 C 441.455 301.015 443.512 300.485 445.795 299.226 L 446.985 328.308 C 453.278 320.747 459.138 312.118 465.866 305.624 C 472.029 299.678 478.072 294.174 485.45 290.485 L 508.021 279.199 L 526.902 273.774 L 536.4 272.853 L 537.815 273.504 L 524.515 299.166 L 514.966 321.953 L 537.537 310.451 L 555.55 305.025 L 568.519 303.237 L 583.277 303.237 L 601.186 307.039 L 583.06 322.118 L 566.566 338.612 L 566.245 340.244 L 581.272 344.307 L 599.502 352.988 L 613.878 362.919 L 627.768 375.941 L 644.644 399.866 L 652.457 416.36 L 658.264 434.868 C 665.765 429.277 672.718 423.131 680.774 418.096 C 689.151 412.87 698.562 407.896 707.685 404.206 C 716.445 400.665 725.091 396.176 734.38 396.176 L 749.033 396.176 C 750.822 396.176 752.592 397.192 754.025 398.13 L 757.497 401.602 L 758.582 404.858 C 758.869 406.819 759.242 408.92 758.365 412.349 C 756.048 421.395 741.602 442.69 734.597 458.897 C 727.365 475.634 723.554 494.437 715.828 511.313 L 706.279 532.148 L 697.216 545.656 C 694.021 550.421 686.009 553.356 684.247 556.993 C 683.153 559.259 684.533 561.49 683.925 563.617 L 680.236 576.421 L 671.555 594.651 C 667.631 602.881 660.999 610.251 655.547 616.84 C 650.72 622.683 646.866 626.771 640.789 632.466 C 632.308 640.418 619.304 650.262 608.565 659.16 C 615.111 667.624 621.161 676.21 628.202 684.552 C 635.546 693.26 643.975 701.697 651.858 710.274 L 708.067 659.811 C 721.54 647.719 735.3 636.433 750.223 625.573 C 765.779 614.262 783.141 603.176 799.705 593.453 C 815.556 584.156 831.989 575.345 847.45 568.278 C 861.349 561.933 876.358 555.83 888.034 552.435 C 896.516 549.979 902.905 548.043 910.553 548.043 L 929.651 548.043 L 939.148 549.831 L 959.766 558.729 L 970.669 566.924 L 982.823 579.946 L 988.413 588.245 C 993.396 595.658 996.912 604.166 999.699 612.552 C 1002.47 620.877 1005.11 629.584 1005.12 638.378 L 1005.18 664.369 C 1005.19 672.303 1003.05 680.012 1000.78 687.756 C 998.405 695.846 995.28 704.606 991.018 711.846 C 986.911 718.817 982.345 725.813 975.878 730.562 L 962.37 740.493 L 944.192 750.094 L 917.828 804.351 C 936.327 797.137 965.66 783.308 973.326 782.7 C 975.27 782.553 975.826 783.247 977.076 783.516 L 972.405 790.461 L 931.717 832.13 C 943.09 836.775 959.844 842.765 965.843 846.072 L 970.4 849.328 L 969.584 851.012 L 941.206 865.17 L 940.121 866.69 L 940.555 870.709 C 938.081 869.928 935.346 868.374 933.124 868.374 C 931.327 868.374 929.868 869.389 928.245 869.893 L 950.217 893.818 L 952.222 899.626 L 952.17 1060.17 C 952.17 1064.71 949.852 1069.44 947.612 1072.98 C 945.59 1076.17 943.046 1078.77 939.799 1080.79 C 936.093 1083.09 930.971 1085.4 926.179 1085.4 Z M 532.059 679.127 C 538.457 679.483 544.976 677.851 551.105 676.47 C 557.026 675.125 562.165 673.606 568.25 671.045 C 575.785 667.867 584.267 663.223 592.557 658.023 C 602.028 652.077 613.027 645.132 621.691 636.807 L 644.262 615.104 L 660.269 594.651 C 665.296 588.227 669.037 579.815 671.555 572.949 C 673.63 567.271 674.81 561.985 675.244 556.672 C 675.652 551.689 675.921 546.663 674.376 542.018 L 671.555 533.554 L 664.61 521.401 L 655.382 510.662 C 648.793 502.988 656.372 488.317 656.198 480.331 L 655.278 467.361 C 654.193 459.175 652.7 446.127 649.201 436.109 L 642.907 418.096 L 635.094 402.47 L 626.413 389.449 L 613.01 375.073 L 603.843 367.746 L 593.425 360.801 L 576.931 352.988 C 571.87 350.592 566.323 347.971 560.759 348.431 C 554.439 348.952 547.668 354.586 541.122 357.659 L 544.482 351.252 L 557.885 334.272 L 579.423 313.055 C 573.494 313.272 567.834 312.734 561.627 313.706 C 554.543 314.818 546.14 316.424 539.273 320 L 519.307 330.417 L 497.717 346.373 C 500.286 337.579 501.953 329.237 505.417 320 C 509.488 309.166 516.016 297.108 521.321 285.658 L 520.175 285.276 C 517.475 285.354 505.078 289.834 498.472 293.957 L 484.582 302.638 L 474.547 310.833 L 458.539 328.681 L 450.726 340.835 C 447.966 345.141 446.533 353.092 444.979 355.054 L 443.512 356.087 C 442.08 351.469 440.239 347.476 439.224 342.25 C 437.965 335.722 438 327.275 437.383 319.783 L 436.35 319.514 L 427.287 333.022 L 423.815 340.835 L 419.257 356.244 L 417.2 372.416 L 401.244 380.768 C 394.855 384.118 389.473 388.91 384.264 394.171 C 378.699 399.796 373.204 406.967 369.124 413.756 C 365.313 420.11 360.912 429.703 360.226 433.505 C 359.966 434.963 359.705 435.901 360.443 436.656 L 372.058 448.48 L 381.608 464.106 L 384.429 474.306 L 383.396 480.009 L 368.204 458.411 L 354.314 443.653 L 332.126 425.909 L 308.687 411.151 L 281.775 398.13 L 249.005 386.627 L 221.225 380.551 C 218.421 379.943 215.174 379.483 212.648 379.682 L 207.171 381.15 L 206.572 384.787 L 208.525 388.91 L 229.689 417.228 L 249.656 449.348 L 288.39 525.203 L 295.717 535.238 L 307.003 546.524 L 322.247 555.587 L 333.315 559.276 C 336.926 560.474 340.451 560.934 344.6 561.012 C 349.696 561.108 358.308 561.134 361.641 559.059 C 363.681 557.783 363.95 555.439 365.114 553.633 C 367.032 560.066 367.866 566.481 370.86 572.949 C 374.333 580.432 379.706 588.089 385.618 595.52 C 392.294 603.905 400.628 612.986 409.439 620.313 L 425.551 633.716 C 434.189 640.895 443.295 646.825 453.33 652.814 C 464.269 659.334 477.698 666.713 488.923 671.045 C 498.264 674.639 506.424 677.686 515.617 678.207 L 532.059 679.127 Z M 917.446 360.48 L 907.133 359.612 L 896.446 354.672 L 889.988 347.241 L 885.43 333.569 L 885.43 318.047 C 885.43 312.969 888.234 307.144 889.988 303.506 L 893.842 297.811 C 895.448 296.04 897.228 294.408 899.537 293.089 C 902.332 291.492 906.126 289.399 909.737 289.399 L 920.918 289.399 C 925.172 289.399 929.868 291.856 932.855 293.957 C 935.216 295.624 937.247 297.976 938.063 300.034 C 938.697 301.64 938.758 303.532 938.28 304.921 C 937.829 306.215 936.674 307.447 935.459 308.177 C 934.148 308.958 932.351 309.635 930.571 309.262 C 927.915 308.697 924.59 303.888 921.569 302.638 C 919.069 301.605 916.508 301.232 914.025 301.501 C 911.473 301.779 908.183 303.307 906.482 304.374 L 904.259 306.492 L 901.273 311.319 C 900.335 313.498 899.259 316.259 899.268 318.863 L 899.32 332.701 C 899.337 336.242 901.872 340.288 903.391 342.519 L 906.482 345.505 L 911.421 347.51 C 913.86 347.979 917.359 348.214 920.05 347.458 C 922.776 346.694 927.663 345.852 927.646 342.901 L 927.594 333.083 L 916.682 332.701 C 915.657 332.666 914.789 331.746 914.295 330.747 C 913.574 329.28 913.539 325.712 914.077 324.124 L 916.031 321.736 L 920.102 320.599 L 934.808 320.651 C 936.145 320.66 937.482 321.198 938.549 322.118 C 939.895 323.273 941.753 325.487 941.753 327.596 L 941.753 343.118 C 941.753 345.175 941.032 347.094 939.799 348.978 C 938.185 351.417 935.225 354.082 931.986 355.922 C 928.071 358.136 922.507 360.905 917.446 360.48 Z M 764.763 354.403 L 764.98 295.693 C 764.989 294.408 765.866 293.167 766.777 292.282 C 767.758 291.309 769.33 290.276 770.84 290.268 L 792.491 290.215 L 798.298 291.353 C 800.677 292.186 803.594 293.401 805.729 295.207 C 807.978 297.108 810.035 300.112 811.32 302.638 C 812.422 304.826 813.056 306.701 813.325 309.314 C 813.69 312.856 813.169 318.733 812.188 322.066 C 811.493 324.428 810.816 326.355 809.202 327.761 L 801.771 334.22 L 792.439 337.041 L 778.931 337.423 L 778.549 354.403 C 778.523 355.48 777.828 356.443 777.082 357.277 C 776.205 358.249 774.868 359.369 773.392 359.664 C 771.561 360.029 768.218 359.56 766.777 358.475 C 765.588 357.58 764.763 355.914 764.763 354.403 Z M 861.722 357.277 L 836.547 317.457 C 836.243 330.279 838.335 350.045 835.627 355.922 C 834.594 358.145 833.057 359.056 831.503 359.612 C 830.036 360.133 828.04 359.898 826.616 359.395 C 825.279 358.909 823.916 357.91 823.143 356.791 L 822.006 352.719 C 820.938 344.932 821.051 306.432 822.006 298.028 L 823.143 293.089 L 824.88 291.353 C 826.434 290.58 830.366 289.851 832.371 290.268 C 833.899 290.589 835.332 291.361 836.113 292.603 L 861.288 332.431 C 861.592 319.896 859.699 301.11 862.208 294.825 C 863.224 292.29 864.648 290.979 866.332 290.268 C 867.964 289.582 870.629 289.851 872.087 290.485 C 873.251 290.997 874.066 292.099 874.692 293.089 L 875.829 296.292 L 875.829 353.587 C 875.829 355.488 874.475 357.494 872.955 358.527 C 871.202 359.707 867.469 360.029 865.464 359.612 C 863.936 359.291 862.512 358.518 861.722 357.277 Z M 778.931 302.699 L 778.931 324.619 L 791.57 324.888 C 793.289 324.922 794.913 323.742 796.18 322.552 C 797.578 321.233 798.819 319.141 799.383 317.075 C 800 314.792 799.843 311.276 799.383 309.366 L 797.916 306.492 C 796.632 305.069 794.079 302.369 791.57 302.421 L 778.931 302.699 Z M 580.074 405.943 L 586.533 396.775 L 593.964 391.185 C 595.613 389.952 597.766 389.579 599.823 389.232 C 602.002 388.876 604.407 388.763 606.716 389.18 C 609.216 389.631 612.229 390.291 614.26 392.053 L 621.691 398.512 C 626.118 402.357 628.505 410.248 629.235 414.407 C 629.669 416.889 628.835 418.565 628.636 420.648 L 626.083 421.03 C 623.679 420.535 618.757 415.379 615.345 414.407 C 612.671 413.651 610.215 413.747 607.636 414.407 C 604.667 415.171 601.16 417.002 598.686 419.346 L 580.404 436.656 C 579.275 437.724 576.975 437.307 575.733 436.656 C 574.457 435.979 573.398 434.347 572.912 432.533 C 572.183 429.807 572.851 425.301 573.78 421.352 C 574.917 416.542 576.879 410.483 580.074 405.943 Z M 431.411 438.609 C 431.124 435.753 430.265 432.593 430.543 430.033 C 430.786 427.871 431.48 425.961 432.496 424.173 L 437.218 415.874 L 445.518 407.679 L 453.33 403.338 L 462.611 401.333 C 467.099 400.361 471.674 401.68 476.231 403.338 C 481.57 405.292 487.977 409.485 492.343 413.269 C 496.119 416.551 499.106 420.041 501.406 424.173 L 505.747 431.986 L 510.304 444.79 C 510.973 446.683 511.398 448.897 511.172 450.763 C 510.955 452.516 510.096 454.704 509.167 455.702 L 506.832 456.84 L 503.681 455.755 C 500.347 453.749 493.819 445.554 488.385 441.535 C 483.193 437.698 476.266 433.861 471.891 431.986 C 469.234 430.857 467.984 430.371 465.163 430.033 C 460.623 429.503 452.714 429.434 447.037 430.901 C 441.481 432.342 436.619 436.04 431.411 438.609 Z M 353.776 541.645 C 352.161 541.732 350.799 542.253 348.941 541.914 C 346.119 541.393 341.848 539.692 338.741 537.356 C 335.173 534.674 330.441 530.837 329.191 526.071 L 326.318 515.055 L 328.323 505.775 C 329.061 502.372 332.525 499.715 335.268 497.962 C 337.864 496.312 341.241 496.191 344.227 495.305 L 329.139 474.905 L 308.305 453.202 L 293.061 440.667 L 260.073 418.096 L 237.172 405.404 L 234.681 402.47 L 242.928 403.121 L 254.864 407.679 L 280.907 421.569 L 300.006 434.59 L 316.118 447.994 C 324.46 454.93 332.056 463.489 338.688 471.433 C 344.774 478.716 350.417 486.225 354.696 493.621 C 358.499 500.21 362.683 509.143 363.594 513.371 L 363.594 517.607 L 361.962 518.475 C 359.419 515.819 356.91 512.416 354.314 510.497 C 352.231 508.952 350 507.728 347.969 507.294 C 346.284 506.938 344.644 506.912 343.081 507.511 C 341.249 508.223 338.932 510.02 337.872 511.852 C 336.813 513.692 336.596 516.322 336.735 518.527 C 336.874 520.767 337.447 522.902 338.741 525.203 C 340.546 528.406 345.008 532.782 347.804 535.238 C 349.8 536.992 352.622 537.799 353.446 539.145 L 353.776 541.645 Z M 684.247 544.188 L 688.535 541.315 L 694.126 533.884 L 702.807 518.258 C 714.396 497.389 719.023 470.287 727.652 451.084 C 734.492 435.884 746.533 417.228 748.816 411.481 L 749.632 408.495 C 748.486 407.358 747.696 405.717 746.212 405.075 C 744.476 404.328 741.759 404.423 739.588 404.858 L 730.907 406.594 L 707.685 414.624 L 692.059 422.437 L 677.302 431.986 C 671.451 435.771 664.384 439.061 661.676 445.875 C 657.804 455.642 664.211 474.384 665.478 488.63 L 676.434 471.051 L 688.101 455.807 L 706.331 437.576 C 711.47 432.437 719.769 427.637 724.179 425.041 C 726.593 423.626 728.338 422.402 730.039 422.22 L 733.355 423.036 L 700.254 454.939 L 685.983 472.787 L 677.302 486.676 C 679.151 488.708 681.425 490.548 682.84 492.753 C 684.168 494.837 685.662 497.05 685.662 499.481 L 685.662 510.662 L 681.104 521.731 C 680.488 523.224 678.352 523.614 678.014 525.472 C 677.31 529.222 682.172 537.955 684.247 544.188 Z M 891.403 521.948 L 888.034 519.343 L 887.93 504.69 C 887.861 495.071 886.341 485.105 884.458 476.042 C 882.695 467.587 880.829 459.548 877.296 451.952 L 870.672 437.741 L 873.277 434.373 L 876.914 434.972 L 884.241 447.612 C 888.755 455.416 890.491 465.217 892.271 473.438 C 893.833 480.687 894.849 487.275 894.875 494.272 L 894.927 508.11 C 894.944 511.574 894.944 516.027 894.007 518.475 C 893.399 520.055 892.271 520.784 891.403 521.948 Z M 560.168 570.075 L 568.467 568.825 L 580.404 564.268 C 582.539 563.452 584.31 562.011 586.099 560.413 C 588.104 558.625 590.179 556.429 591.689 553.85 C 593.382 550.96 594.962 546.402 595.431 543.702 C 595.726 542.001 595.83 540.768 595.379 539.414 L 592.557 530.95 C 591.707 528.398 589.475 526.062 587.835 524.387 L 583.876 521.401 C 580.76 519.656 575.108 515.975 570.204 515.975 L 558.154 515.975 L 537.919 523.415 L 536.669 521.401 C 538.7 519.092 540.184 516.426 542.745 514.456 C 545.714 512.181 549.794 509.864 553.814 509.03 L 562.443 507.242 L 575.195 508.596 C 575.013 500.644 573.867 491.659 574.648 484.723 C 575.273 479.237 576.272 474.74 578.338 470.182 L 582.678 460.633 L 586.533 454.939 C 589.258 451.909 594.754 446.935 598.304 445.007 C 600.7 443.714 602.41 443.254 604.98 443.002 C 608.348 442.672 613.583 443.08 616.864 444.139 C 619.486 444.99 621.378 446.405 623.427 447.994 L 629.504 454.07 L 632.49 458.029 L 637.916 470.834 C 638.836 473.716 639.652 475.981 639.652 478.646 L 639.652 496.773 L 633.957 512.668 L 636.996 514.187 L 603.027 534.804 L 603.192 547.991 C 603.218 550.048 602.124 551.889 601.238 553.85 C 600.249 556.029 599.181 558.616 597.384 560.413 L 590.439 567.358 C 587.392 570.405 583.025 572.046 578.885 573.166 C 574.596 574.32 568.216 574.52 565.099 574.034 L 561.358 572.567 L 560.168 570.075 Z M 492.942 544.518 L 462.012 534.752 L 439.771 524.005 L 427.348 519.942 L 428.155 517.928 L 432.991 517.659 L 428.155 510.445 C 427.131 508.24 426.202 506.053 426.202 503.717 L 426.202 491.668 L 429.024 480.6 L 433.364 471.919 L 439.823 463.62 C 443.304 459.149 450.04 456.354 454.199 454.557 C 457.029 453.341 459.303 452.933 461.795 452.603 L 468.687 452.551 C 472.49 453.046 478.054 454.149 482.308 456.293 C 486.848 458.585 491.388 462.17 494.947 466.224 C 498.689 470.486 502.465 475.764 504.01 481.468 L 507.7 495.14 L 507.7 508.926 L 505.964 517.607 L 501.406 529.543 L 492.395 540.499 L 493.758 543.702 L 492.942 544.518 Z M 859.335 538.389 L 856.783 535.837 L 855.81 515.107 L 853.206 497.745 L 847.78 478.863 L 842.954 467.309 L 845.497 463.889 L 848.266 464.488 C 849.647 465.417 851.27 468.056 852.121 470.182 L 857.546 483.855 L 861.887 502.085 C 864.361 512.468 864.613 528.536 862.755 534.101 C 861.982 536.402 860.472 536.957 859.335 538.389 Z M 613.392 523.467 L 626.9 512.668 L 631.622 504.368 L 633.575 496.773 L 633.575 481.251 L 629.018 466.71 L 624.295 459.279 C 622.42 456.319 619.217 454.096 615.996 452.82 C 612.567 451.466 607.654 451.075 604.164 451.735 C 601.125 452.317 598.617 453.862 596.082 455.807 C 593.13 458.072 590.205 461.354 587.887 464.974 C 585.257 469.089 583.069 474.566 581.593 479.515 C 580.161 484.324 579.892 489.315 579.05 494.22 L 580.404 493.951 C 581.671 492.988 582.748 487.805 584.796 485.322 C 586.932 482.735 590.448 480.061 593.095 478.863 C 595.075 477.969 596.863 477.553 598.851 477.778 C 601.16 478.047 604.337 478.994 606.065 480.982 L 612.524 488.413 C 614.295 490.453 614.711 492.97 615.345 496.009 C 616.222 500.219 616.864 506.79 616.213 511.53 C 615.632 515.723 613.574 519.23 612.255 523.085 L 613.392 523.467 Z M 461.473 528.563 C 460.692 523.198 458.782 517.468 459.138 512.45 C 459.459 507.91 461.204 503.136 462.88 499.698 C 464.191 497.016 465.961 494.811 467.602 493.135 L 471.561 490.149 L 479.157 487.328 L 483.445 487.275 C 485.641 487.666 488.741 488.699 490.989 490.149 C 493.298 491.651 495.92 493.604 497.066 496.226 L 500.755 504.69 L 502.274 514.673 L 503.412 508.978 L 502.491 496.009 L 498.802 484.94 L 490.069 471.979 L 482.308 465.842 C 478.323 462.691 472.403 461.614 467.767 461.284 C 463.652 460.998 459.407 461.267 455.935 463.238 L 447.636 467.96 L 441.177 474.523 L 435.968 483.204 L 433.095 493.352 L 433.147 505.454 C 433.164 508.153 434.623 510.766 435.968 513.049 C 437.305 515.315 438.581 517.156 441.177 519.126 C 445.526 522.425 454.711 525.42 461.473 528.563 Z M 833.239 552.331 C 832.12 551.463 830.783 551.411 829.871 549.727 C 827.267 544.9 828.864 525.472 827.163 515.107 C 825.73 506.443 821.477 495.297 821.19 491.564 L 821.407 489.281 L 823.795 487.328 L 826.078 487.545 C 827.05 488.091 827.805 489.159 828.682 491.017 C 830.991 495.913 834.559 511.14 835.844 520.316 C 836.955 528.241 837.033 537.495 836.712 542.782 C 836.53 545.69 836.399 547.817 835.627 549.51 L 833.239 552.331 Z M 604.928 491.668 C 604.372 489.984 602.827 487.649 601.238 486.676 C 599.719 485.756 597.393 485.261 595.7 485.808 C 593.764 486.442 591.212 488.934 590.491 491.017 C 589.771 493.1 590.344 496.451 591.359 498.292 C 592.253 499.889 594.207 501.235 595.7 501.764 L 599.502 501.764 L 603.244 499.429 L 604.928 495.904 C 605.223 494.585 605.388 493.066 604.928 491.668 Z M 475.684 502.085 C 475.372 503.926 475.936 506.261 476.769 507.841 C 477.533 509.282 479.009 510.549 480.242 511.313 L 483.497 512.398 C 484.956 512.346 487.091 511.617 488.333 510.393 C 489.782 508.952 491.05 505.792 491.154 503.769 C 491.232 502.129 490.694 500.557 489.739 499.212 C 488.602 497.606 486.171 495.505 484.261 495.14 C 482.534 494.819 480.294 495.531 478.888 496.608 C 477.386 497.762 476.014 500.175 475.684 502.085 Z M 665.148 508.709 L 673.777 518.206 L 675.895 515.654 L 677.849 508.926 L 677.849 502.953 L 676.382 499.212 C 675.479 498.023 673.621 496.443 672.475 496.286 L 670.357 497.094 C 668.734 498.483 665.4 504.316 664.931 506.426 C 664.723 507.398 664.636 508.145 665.148 508.709 Z M 790.155 571.213 L 783.54 548.312 L 776.049 531.497 C 775.623 530.533 775.832 529.196 776.266 528.346 L 778.653 526.392 L 780.936 526.609 L 783.54 529.214 C 786.127 533.172 791.319 546.888 793.307 554.172 C 794.774 559.571 795.781 565.526 795.642 568.66 L 794.774 572.029 L 793.09 572.949 C 792.239 572.931 790.477 572.298 790.155 571.213 Z M 542.207 566.004 L 535.479 564.589 L 527.718 565.405 L 522.562 564.485 C 520.088 563.547 516.407 561.516 514.48 559.545 C 512.9 557.931 511.962 556.125 511.277 554.067 C 510.521 551.784 510.061 548.798 510.408 546.359 C 510.747 543.997 512.093 541.367 513.23 539.631 L 516.216 536.54 C 517.518 535.577 519.055 534.492 520.826 534.205 C 522.961 533.867 525.783 534.969 528.265 535.351 L 528.265 537.304 C 525.583 538.094 522.076 538.233 520.235 539.692 C 518.708 540.89 517.796 542.843 517.353 544.622 C 516.911 546.411 517.119 548.685 517.57 550.378 L 519.688 554.337 C 520.704 555.352 522.154 556.411 523.647 556.455 L 535.479 556.776 C 536.999 556.819 538.379 557.766 539.603 558.729 C 540.948 559.797 542.806 561.698 543.075 563.07 C 543.275 564.085 542.494 565.023 542.207 566.004 Z M 647.847 572.029 L 645.512 566.542 L 640.303 560.465 L 637.751 561.715 C 635.789 563.287 631.882 567.254 630.424 570.883 L 619.469 598.124 L 610.787 614.618 L 600.856 628.126 C 597.219 633.074 592.54 636.859 587.349 640.661 C 581.55 644.897 574.631 649.524 567.382 651.946 L 556.314 655.636 L 542.424 658.24 L 519.037 658.292 L 504.332 655.636 L 490.659 651.078 L 477.637 645.002 L 463.262 635.07 L 457.185 629.862 L 445.518 615.486 C 441.359 610.355 438.772 604.522 435.968 598.124 C 432.8 590.875 429.414 581.23 427.938 574.034 C 426.801 568.443 427.105 563.868 426.697 558.79 L 421.593 561.715 C 419.066 563.842 415.299 570.518 413.728 571.213 L 412.59 571.16 C 412.191 570.11 411.418 569.381 411.392 568.009 C 411.349 565.457 413.293 559.962 415.134 556.993 C 416.723 554.449 418.554 552.661 421.211 550.916 C 424.692 548.633 430.786 546.289 434.883 545.491 C 438.026 544.883 441.047 545.169 443.512 545.439 C 445.396 545.647 447.254 545.855 448.452 546.576 L 450.405 548.859 L 449.32 550.378 C 448.148 551.194 445.118 551.533 443.026 552.114 L 461.143 565.136 L 473.297 572.081 C 482.968 577.602 494.218 581.482 504.332 584.451 C 513.49 587.134 522.032 588.635 531.243 589.66 C 540.792 590.719 552.538 590.884 560.654 590.528 C 566.419 590.276 570.62 590.059 575.412 588.792 L 592.557 584.234 L 608.183 577.289 L 622.559 567.358 L 630.919 557.592 L 623.54 554.337 L 626.083 551.784 C 627.559 550.873 629.851 550.022 631.943 549.831 C 634.27 549.623 637.065 549.935 639.435 550.916 C 642.065 552.01 645.06 554.345 646.866 556.507 C 648.446 558.399 649.522 560.57 650.069 562.853 C 650.634 565.24 650.859 569.086 650.069 570.561 C 649.6 571.43 648.585 571.534 647.847 572.029 Z M 929.382 609.296 L 922.976 599.86 L 919.286 588.792 L 918.097 579.564 C 917.724 576.673 913.348 574.051 913.209 572.298 C 913.14 571.369 913.895 570.813 914.242 570.075 C 916.682 571.785 920.128 572.81 921.569 575.223 C 923.097 577.802 921.899 581.395 922.759 585.319 C 924.035 591.092 929.122 602.386 929.599 606.258 L 929.382 609.296 Z M 756.412 649.342 L 758.904 646.408 C 763.626 642.293 779.573 632.397 792.76 624.705 C 810.252 614.514 836.608 599.765 855.263 591.717 C 869.483 585.588 884.336 580.441 894.111 578.479 C 899.797 577.341 905.301 577.038 907.949 577.558 L 910.284 578.696 L 909.633 580.111 L 902.792 580.215 L 887.166 583.687 C 874.874 586.422 864.613 591.144 851.791 596.926 C 835.505 604.27 813.881 616.389 797.968 625.573 C 784.834 633.161 769.833 644.472 762.706 647.606 C 759.876 648.847 758.504 648.76 756.412 649.342 Z M 976.26 680.594 L 974.845 679.943 L 974.741 670.498 L 972.136 660.081 C 967.666 642.189 960.756 619.314 955.425 607.343 C 952.456 600.685 950.894 596.5 946.744 592.585 L 933.775 580.38 L 933.454 578.756 C 935.563 579.598 937.534 579.885 939.799 581.3 C 943.116 583.383 947.56 587.411 950.703 591.231 C 953.958 595.19 956.042 598.393 958.898 604.739 C 964.566 617.352 975.435 643.691 977.345 664.421 L 978.213 673.866 L 976.26 680.594 Z M 483.992 586.022 L 458.539 572.732 L 458.322 584.451 L 460.058 591.396 L 463.748 599.86 C 464.408 601.362 465.918 602.786 467.22 603.332 C 468.375 603.81 469.738 603.853 471.022 603.332 C 472.88 602.569 474.842 600.086 476.717 597.742 C 479.183 594.66 481.561 589.929 483.992 586.022 Z M 591.689 612.014 L 595.379 603.549 L 596.846 591.778 L 575.794 596.987 C 576.35 599.678 576.376 602.36 577.47 605.069 C 578.763 608.237 581.584 613.064 583.546 614.618 C 584.614 615.46 585.578 615.877 586.698 615.703 C 588.225 615.469 590.864 613.906 591.689 612.014 Z M 748 766.154 L 740.673 758.723 C 738.781 756.796 737.982 753.775 737.852 751.127 C 737.713 748.306 738.711 744.599 740.187 742.281 C 741.515 740.198 743.625 738.549 745.882 737.559 L 754.346 733.869 C 755.579 733.34 756.785 733.592 758.365 734.087 C 761.161 734.972 766.005 740.328 769.052 740.762 C 771.092 741.057 773.332 740.337 774.477 739.243 C 775.528 738.236 775.458 736.239 775.945 734.738 C 773.913 733.583 772.55 732.055 769.868 731.265 C 765.536 729.989 756.282 731.066 751.742 730.293 C 748.92 729.815 747.054 729.477 745.014 728.34 L 734.979 722.749 L 728.52 715.318 L 723.094 700.777 L 723.094 690.464 L 727.652 677.66 L 734.111 669.361 L 748.486 660.298 L 756.95 658.344 C 759.173 657.832 761.169 657.893 763.791 658.344 C 767.593 659.013 772.828 661.6 777.351 663.232 C 776.917 660.732 775.728 657.893 776.049 655.74 C 776.318 653.969 776.995 652.65 778.384 651.13 C 780.658 648.639 786.57 645.349 790.155 643.804 C 792.838 642.649 795.416 641.72 797.647 641.85 C 799.496 641.963 801.311 642.935 802.639 643.804 L 805.243 646.408 L 829.55 684.822 C 827.328 669.326 823.065 644.776 822.874 638.326 L 823.143 635.122 C 823.742 633.43 824.923 630.4 826.998 629.428 L 837.033 624.705 C 839.62 623.49 842.78 622.379 845.393 622.752 C 847.963 623.125 850.897 624.94 852.607 626.823 C 854.222 628.612 854.595 631.346 855.593 633.603 C 856.93 629.48 857.503 625.044 859.604 621.233 C 861.8 617.257 864.674 612.864 868.667 610.329 L 876.098 605.607 L 888.034 601.917 C 892.983 600.39 899.511 601.857 903.556 602.786 C 906.325 603.428 908.365 604.114 910.284 605.607 L 918.583 612.066 C 921.786 614.557 923.844 619.531 924.391 622.752 C 924.79 625.148 924.095 627.527 923.305 629.376 L 920.319 633.334 C 918.47 635.313 915.223 638.352 912.888 639.793 L 907.949 641.798 C 906.551 642.024 904.91 642.415 903.877 641.529 L 896.394 635.122 C 895.214 634.116 893.173 634.619 891.724 635.122 C 890.152 635.678 888.321 636.911 887.383 638.595 C 886.177 640.783 885.899 643.942 886.298 647.823 C 887.027 654.898 892.922 671.479 896.064 677.121 C 897.54 679.76 898.66 681.132 900.405 682.33 C 902.054 683.459 904.172 684.466 906.16 684.283 C 908.478 684.066 912.194 681.957 913.374 680.212 C 914.242 678.918 913.774 677.208 913.973 675.706 L 912.289 674.786 C 910.336 674.448 904.45 676.974 901.924 676.47 C 900.292 676.14 899.363 675.507 898.182 674.135 C 896.038 671.652 892.948 664.829 892.375 660.844 C 891.941 657.797 892.08 654.716 893.46 652.485 C 894.927 650.132 897.87 648.995 901.273 647.276 C 906.699 644.55 918.331 639.732 923.627 639.246 C 926.448 638.994 928.367 639.498 930.25 640.331 C 931.96 641.095 933.167 641.833 934.591 643.804 C 937.655 648.057 941.944 660.419 943.489 667.893 C 944.756 674.04 945.234 680.056 944.409 685.203 C 943.706 689.622 941.918 693.442 939.799 697.088 C 937.655 700.76 934.356 704.536 931.605 707.123 L 925.042 711.846 C 921.083 714.033 915.18 718.139 909.633 718.139 L 896.715 718.139 C 894.38 718.139 892.462 717.289 889.988 716.186 C 886.515 714.632 881.211 711.429 878.216 708.859 C 875.942 706.906 874.926 705.63 873.007 702.783 C 869.466 697.531 864.656 686.688 860.472 678.641 C 861.835 694.431 865.212 718.877 864.543 726.004 L 863.406 730.076 L 861.288 734.034 C 860.107 735.284 858.232 736.361 856.461 737.021 L 841.921 742.446 C 839.768 743.245 837.337 743.783 835.08 743.314 C 832.519 742.776 830.618 741.674 827.484 738.757 C 818.525 730.423 799.705 699.258 785.815 679.509 C 784.929 681.766 784.738 684.118 783.158 686.289 C 781.049 689.179 775.997 693.459 773.123 694.484 C 771.396 695.1 770.198 694.926 768.453 694.484 C 765.892 693.824 761.959 689.648 759.555 689.596 C 757.949 689.561 756.351 690.647 755.492 691.61 C 754.754 692.426 754.19 693.772 754.346 694.701 C 754.502 695.595 755.466 696.506 756.299 697.088 L 759.555 698.173 C 763.235 698.954 772.463 698.173 778.549 700.013 L 787.881 702.835 L 798.784 711.03 L 805.243 721.933 L 808.064 733.001 L 808.064 739.842 L 805.243 750.042 L 801.389 756.605 L 793.576 764.418 C 789.886 768.108 784.504 769.818 779.417 771.094 C 774.069 772.431 767.533 772.882 762.159 771.962 C 757.107 771.094 751.577 769.792 748 766.154 Z M 465.328 626.172 C 470.588 630.131 475.276 634.662 481.11 638.057 C 487.334 641.668 494.392 645.462 501.727 646.955 L 519.037 650.479 L 541.608 650.479 L 549.1 648.526 L 546.548 642.067 L 540.957 633.768 L 532.658 626.441 L 524.194 622.752 L 513.291 623.03 L 516.112 629.862 L 514.914 631.06 L 499.67 619.497 L 490.338 616.675 L 484.313 616.623 L 472.429 620.365 L 465.328 626.172 Z M 902.523 710.925 L 912.237 709.458 C 918.305 708.538 924.009 703.989 928.132 700.178 C 931.778 696.81 934.643 692.608 936.327 688.407 C 937.916 684.422 938.61 680.568 938.28 675.706 C 937.812 668.909 933.306 656.504 931.118 651.616 C 930.077 649.299 929.469 647.84 928.132 646.79 C 926.917 645.835 925.094 644.724 923.627 645.323 L 899.597 655.15 C 898.816 655.462 898.59 656.443 898.512 657.424 C 898.373 659.047 899.476 662.077 900.405 664.1 L 903.877 669.308 L 918.045 665.567 L 920.918 673.102 C 921.265 674.951 921.396 676.436 920.97 678.259 C 920.423 680.585 919.095 683.762 917.177 685.75 C 915.119 687.869 911.412 689.666 908.765 690.36 C 906.664 690.907 904.537 690.647 902.74 690.412 L 898.669 689.275 C 896.941 688.363 894.58 686.896 893.46 684.934 L 886.515 672.781 L 881.089 657.372 L 879.301 648.743 C 878.433 644.567 879.266 639.289 880.438 635.991 C 881.298 633.577 882.548 631.772 884.293 630.296 C 886.159 628.725 888.911 627.414 891.455 627.04 C 894.094 626.65 897.254 627.058 899.867 628.178 C 902.714 629.41 905.11 632.414 907.732 634.532 L 915.979 628.126 C 917.463 626.971 917.68 624.393 917.498 622.7 C 917.324 621.077 916.413 619.74 915.111 618.142 C 913.044 615.607 908.114 611.623 905.075 609.947 C 902.974 608.793 901.273 607.994 899.216 607.994 L 888.902 607.994 C 883.998 607.994 879.162 610.842 875.23 613.42 C 871.471 615.894 868.024 619.184 865.681 622.969 C 863.267 626.884 861.123 631.841 861.123 636.642 L 861.123 652.163 L 867.417 676.253 L 875.23 692.747 C 877.426 697.383 881.385 701.541 885.161 704.519 C 888.625 707.245 893.443 709.372 896.715 710.326 C 898.912 710.969 900.596 711.212 902.523 710.925 Z M 839.316 735.502 L 855.862 728.609 C 857.06 728.114 857.217 727.142 857.599 725.136 C 859.3 716.143 852.312 661.773 850.602 647.059 L 848.865 634.905 L 847.78 631.65 C 847.051 630.565 845.888 628.369 844.525 628.829 L 833.561 632.518 C 832.007 633.048 830.661 633.647 829.871 635.774 C 826.954 643.673 838.7 691.497 839.316 702.618 L 839.099 709.997 L 825.748 691.879 C 818.161 680.793 804.227 652.988 798.784 649.394 C 797.309 648.422 796.25 648.257 795.147 648.795 L 784.079 654.221 C 782.724 654.889 781.987 656.417 782.073 658.292 C 782.282 662.884 791.11 674.005 796.232 681.462 L 824.88 723.131 L 833.943 734.903 L 839.316 735.502 Z M 571.671 842.877 L 569.388 832.781 C 569.144 830.533 568.927 828.701 569.44 826.757 L 571.671 818.354 L 562.712 816.886 C 560.212 816.478 558.041 814.638 556.149 813.032 C 554.282 811.443 552.807 809.768 551.426 807.337 C 549.56 804.038 546.869 799.064 546.869 794.533 L 546.869 783.351 C 546.869 780.686 547.572 778.612 548.605 775.539 C 550.237 770.712 554.144 763.567 556.913 757.586 L 551.973 755.572 L 539.924 755.572 L 523.708 760.407 L 526.199 754.435 L 493.645 723.617 L 434.614 663.718 L 416.714 644.403 L 421.758 644.35 L 422.027 643.317 C 415.212 637.406 407.868 628.264 401.574 625.573 C 397.398 623.794 393.561 623.438 389.742 624.488 L 379.542 627.31 L 371.729 631.65 L 362.561 639.845 L 354.366 651.616 L 348.29 665.506 L 343.732 683.519 L 341.892 700.777 L 335.051 721.716 C 334.079 724.702 336.032 728.14 337.004 730.944 L 340.477 737.889 C 343.342 742.143 348.489 748.211 353.88 753.133 C 360.27 758.975 368.473 764.913 376.937 770.009 C 386.148 775.547 396.496 781.676 407.321 784.767 L 438.304 793.613 C 440.665 794.281 442.983 791.494 445.248 791.112 L 451.273 791.164 C 453.131 791.59 454.746 793.682 456.534 793.613 C 458.478 793.534 460.51 791.364 462.506 790.244 L 425.933 759.209 L 380.792 714.068 L 369.124 698.824 L 363.699 687.756 L 363.976 685.533 L 365.331 685.256 C 368.638 686.332 380.809 702.514 390.341 712.332 C 402.338 724.676 417.183 740.563 432.01 753.133 L 461.143 777.822 L 486.319 796.052 L 490.937 797.519 L 491.31 815.367 L 495.868 832.512 L 500.208 841.193 C 502.5 845.768 506.814 849.631 510.625 852.479 C 514.046 855.022 518.3 857.357 521.694 857.904 C 524.35 858.33 526.651 857.219 529.133 856.871 L 522.293 851.229 C 520.218 849.51 518.985 847.287 517.57 844.666 C 515.799 841.367 513.178 835.655 513.013 832.729 C 512.926 831.071 513.699 830.09 514.046 828.771 L 524.897 844.284 L 534.064 851.611 C 536.816 853.798 540.853 854.614 544.212 854.484 C 547.615 854.354 550.975 851.993 554.361 850.743 L 543.995 842.548 L 536.669 833.38 L 531.243 821.444 L 531.46 814.933 L 543.995 832.998 L 552.295 840.325 L 562.495 844.883 C 564.049 845.577 566.028 845.247 567.599 844.883 L 571.671 842.877 Z M 542.155 688.138 C 536.781 688.294 531.99 688.936 526.034 688.624 C 518.56 688.224 509.184 687.27 500.859 685.151 C 492.178 682.938 484.105 679.613 475.033 675.385 C 464.164 670.307 451.959 662.433 440.422 655.957 C 461.925 678.224 491.024 709.085 504.931 722.749 L 519.307 736.153 L 521.859 734.903 C 524.836 732.046 530.983 719.745 534.394 711.846 C 537.71 704.146 539.568 696.037 542.155 688.138 Z M 796.562 718.461 L 788.749 710.648 L 776.813 706.09 L 757.818 704.25 C 754.633 703.937 751.073 701.871 749.354 699.692 C 747.818 697.73 747.106 694.579 747.401 692.2 C 747.696 689.839 749.398 687.079 751.091 685.473 C 752.653 683.997 754.936 683.111 756.95 682.651 C 758.886 682.209 760.883 682.052 762.923 682.651 C 765.466 683.398 768.8 687.591 770.788 687.704 C 771.943 687.764 772.602 687.105 773.609 686.289 C 775.337 684.891 778.714 681.254 779.417 679.075 C 779.877 677.634 779.816 676.453 779.2 675.055 C 778.228 672.876 774.721 669.769 772.255 668.11 C 770.128 666.687 767.958 665.289 765.527 665.289 L 754.346 665.289 C 751.004 665.289 748.018 667.112 745.014 668.979 C 741.524 671.149 737.505 674.613 734.979 678.042 C 732.617 681.245 730.977 685.386 730.039 688.728 C 729.284 691.445 728.928 693.572 729.171 696.437 C 729.492 700.196 730.829 705.578 732.86 709.241 C 734.762 712.662 738.312 715.978 740.673 717.922 C 742.227 719.198 743.391 720.075 745.014 720.527 L 755.214 723.348 C 761.256 725.015 769.633 723.322 773.991 724.537 C 776.535 725.249 778.219 726.161 779.686 727.524 C 781.066 728.808 782.134 730.597 782.672 732.35 C 783.211 734.121 783.237 736.387 782.889 738.106 L 780.936 742.229 C 779.721 743.627 777.82 744.929 775.728 745.702 C 773.175 746.639 769.616 747.464 766.5 746.787 C 762.793 745.98 758.982 742.229 755.214 739.946 C 751.82 742.047 746.412 743.87 745.014 746.24 C 744.128 747.759 744.363 749.495 744.797 751.127 C 745.326 753.063 747.115 755.32 748.547 756.935 L 752.827 760.46 C 755.258 761.892 759.355 763.385 762.159 764.149 L 768.184 765.069 C 770.797 765.13 773.748 765 776.813 764.149 C 780.658 763.073 785.858 760.711 789.235 758.341 C 792.091 756.336 794.461 753.732 796.18 751.397 L 799.166 745.702 C 800.295 742.221 801.519 736.621 801.12 732.133 C 800.703 727.541 799.956 721.864 796.562 718.461 Z M 811.051 761.276 L 812.509 759.045 L 848.865 750.259 L 904.207 732.68 L 931.986 722.263 L 955.043 709.727 L 962.37 701.428 C 965.573 697.791 966.693 689.752 968.117 688.077 L 969.315 687.322 L 970.183 688.945 C 970.565 690.386 970.964 693.181 970.4 695.569 C 969.636 698.798 967.475 703.408 964.593 706.255 L 956.293 714.45 L 937.195 723.999 L 922.437 730.076 L 868.832 747.655 L 841.052 755.468 C 832.467 757.881 819.897 761.145 815.009 761.545 L 811.051 761.276 Z M 644.591 717.106 L 620.389 689.761 L 600.422 664.699 C 591.724 669.413 582.913 675.047 574.327 678.858 C 566.523 682.321 552.867 678.997 551.209 686.992 L 549.421 695.621 C 549.074 697.296 550.315 698.025 551.808 700.178 C 556.791 707.349 581.628 736.569 590.005 742.715 C 593.243 745.085 595.604 744.4 597.766 746.24 L 605.197 752.595 L 644.591 717.106 Z M 600.969 782.11 L 602.645 779.228 C 607.098 774.401 628.549 761.944 642.525 751.397 C 658.959 738.991 675.444 720.449 694.664 708.911 L 703.345 703.703 L 706.227 703.764 L 705.897 706.255 L 670.357 732.35 L 633.358 762.196 L 614.26 775.217 L 600.969 782.11 Z M 988.144 761.276 L 987.059 758.992 L 988.465 756.171 C 992.78 750.381 1021.11 724.433 1031 716.238 L 1042.56 707.826 C 1044.06 708.894 1046.31 709.754 1047.06 711.03 C 1047.65 712.037 1047.84 713.304 1047.44 714.45 C 1046.89 716.047 1045.22 716.976 1042.72 719.277 C 1034.97 726.395 1000.78 756.753 992.754 760.46 C 990.592 761.458 989.681 760.998 988.144 761.276 Z M 332.881 742.229 C 331.926 740.224 331.414 737.663 330.007 736.205 C 328.705 734.85 326.648 734.434 324.964 733.548 C 325.702 732.481 326.882 731.743 327.186 730.345 C 327.637 728.279 326.17 724.772 325.667 721.994 C 324.165 723.921 321.691 725.492 321.161 727.793 C 320.562 730.397 321.951 734.364 323.115 737.021 C 324.156 739.382 326.014 741.066 327.455 743.097 L 332.881 742.229 Z M 636.562 774.297 L 637.369 772.283 L 706.817 736.691 C 708.632 735.762 711.357 734.607 712.625 734.798 L 714.092 735.823 L 713.71 738.375 L 661.138 763.932 L 636.562 774.297 Z M 319.92 735.883 L 317.906 736.691 C 317.012 737.602 316.083 740.007 315.953 741.682 C 315.831 743.306 316.413 745.424 317.038 746.57 L 318.722 748.254 L 324.478 744.235 L 319.92 735.883 Z M 577.964 743.367 L 546.6 707.236 C 540.323 719.008 528.187 738.088 527.771 742.551 L 528.37 744.452 C 529.151 745.519 530.757 747.004 532.979 747.655 C 537.163 748.879 546.539 744.834 552.841 746.891 L 563.311 750.311 L 577.964 743.367 Z M 323.931 759.539 L 328.818 754.652 L 326.37 750.259 L 326.266 746.891 L 323.983 747.108 C 322.785 747.716 320.745 749.617 320.293 751.232 C 319.833 752.898 320.615 755.537 321.378 756.987 L 323.931 759.539 Z M 340.104 752.048 C 338.602 750.112 337.265 747.36 335.598 746.24 C 334.331 745.389 332.785 745.042 331.527 745.103 L 328.384 746.301 C 328.94 748.124 329.087 750.39 330.06 751.778 C 330.91 752.976 332.126 754.166 333.532 754.383 C 335.32 754.652 337.907 752.829 340.104 752.048 Z M 350.304 763.88 C 348.29 761.467 346.519 757.977 344.279 756.657 C 342.508 755.624 339.956 755.208 338.524 755.572 C 337.499 755.833 336.97 756.84 336.197 757.473 C 337.334 759.913 337.899 763.316 339.609 764.8 C 341.058 766.05 343.411 766.64 345.199 766.484 C 346.97 766.319 348.602 764.748 350.304 763.88 Z M 583.876 798.656 L 586.698 790.192 L 586.151 767.943 L 589.953 766.536 C 592.253 765.104 595.266 761.51 597.931 758.992 C 596.134 757.343 594.51 755.225 592.557 754.053 C 590.76 752.985 588.989 752.299 586.75 752.048 C 583.868 751.726 579.649 752.265 576.601 753.185 C 573.85 754.027 571.48 755.234 569.17 757.039 C 566.514 759.114 563.901 762.083 561.844 765.338 C 559.543 768.993 557.104 773.559 556.418 778.143 L 554.743 789.376 L 556.635 799.524 C 557.173 802.363 559.908 804.967 561.844 806.469 C 563.363 807.641 564.882 808.231 566.783 808.474 C 569.179 808.778 572.573 808.631 575.195 807.337 C 578.346 805.775 582.583 802.537 583.876 798.656 Z M 336.631 765.937 L 334.4 763.064 L 332.942 757.586 L 329.842 757.308 L 327.455 759.262 C 326.795 760.286 326.153 761.979 326.37 763.281 C 326.613 764.705 328.167 766.545 329.191 767.404 L 331.527 768.437 C 332.907 768.403 334.93 766.771 336.631 765.937 Z M 894.328 778.577 L 904.094 764.47 L 894.389 767.135 L 894.328 778.577 Z M 361.589 771.363 C 359.072 769.575 356.268 766.64 354.045 765.989 C 352.578 765.564 351.181 765.746 350.026 766.206 L 347.205 768.594 L 350.408 773.099 C 351.545 774.098 352.813 775.157 354.314 775.165 C 356.363 775.165 359.158 772.63 361.589 771.363 Z M 347.048 773.75 C 346.102 772.413 345.477 770.729 344.227 769.74 C 342.925 768.707 340.972 768.437 339.34 767.786 L 335.051 771.198 L 336.136 774.349 L 340.26 778.039 L 347.048 773.75 Z M 379.168 782.431 C 374.845 779.844 369.636 775.625 366.199 774.67 C 364.202 774.124 362.561 774.184 361.094 774.67 C 359.74 775.122 358.785 776.407 357.622 777.275 C 358.855 778.612 359.905 780.608 361.311 781.294 C 362.518 781.884 363.768 781.225 365.331 781.615 C 367.77 782.24 371.789 785.773 374.281 785.583 C 376.199 785.426 377.536 783.482 379.168 782.431 Z M 845.445 791.876 L 847.129 786.72 L 847.181 779.072 L 843.761 780.747 C 843.761 783.603 843.179 787.362 843.761 789.324 L 845.445 791.876 Z M 356.598 781.563 L 352.96 777.492 C 351.927 776.815 350.92 776.285 349.705 776.407 C 347.977 776.589 345.72 778.724 343.732 779.879 L 346.067 783.516 C 347.274 784.541 349.227 785.739 350.842 785.583 C 352.726 785.392 354.679 782.9 356.598 781.563 Z M 820.487 799.472 L 820.756 786.173 L 819.454 786.824 C 818.82 787.675 818.838 790.192 818.534 791.876 C 817.562 790.279 816.789 787.779 815.608 787.102 C 814.758 786.607 813.334 786.72 812.726 787.041 L 811.971 788.239 L 820.487 799.472 Z M 374.828 790.244 L 372.927 787.909 C 371.19 786.598 367.162 784.74 364.463 784.22 C 362.171 783.786 359.575 783.69 357.839 784.437 C 356.354 785.079 355.564 786.72 354.427 787.857 L 357.839 791.711 C 359.436 792.918 361.711 794.272 363.699 794.533 C 365.582 794.776 367.622 794.133 369.454 793.448 L 374.828 790.244 Z M 391.973 788.725 C 389.742 787.51 387.328 785.609 385.297 785.088 L 381.061 785.088 L 376.781 787.64 L 378.673 789.975 C 380.045 790.999 382.615 792.605 384.698 792.527 C 387.033 792.432 389.542 789.993 391.973 788.725 Z M 883.043 781.077 C 882.704 784.714 881.341 790.123 882.018 791.98 L 883.425 793.395 L 886.793 789.593 L 883.043 781.077 Z M 983.743 818.623 L 986.729 814.334 L 995.028 809.612 L 1028.02 794.854 L 1038.16 791.98 C 1039.47 791.607 1041.11 791.737 1042.24 792.25 L 1044.84 794.854 L 1045.06 797.137 C 1044.83 798.014 1044.31 799.42 1043.32 799.741 L 1015 808.744 L 986.894 819.708 L 983.743 818.623 Z M 784.409 801.148 L 780.884 793.178 L 772.906 793.986 L 784.409 801.148 Z M 406.08 794.585 C 403.51 793.43 400.906 791.607 398.371 791.112 C 396.122 790.678 393.492 790.67 391.695 791.381 C 390.176 791.998 389.273 793.517 388.066 794.585 C 389.559 795.939 390.905 797.788 392.563 798.656 L 397.503 799.793 L 399.838 799.524 L 401.626 796.972 L 406.08 794.585 Z M 485.78 880.258 L 488.272 871.247 L 482.846 869.841 L 475.901 865.283 L 478.184 871.898 C 478.592 874.338 478.801 877.194 478.184 879.607 C 477.568 882.012 476.266 884.486 474.495 886.335 C 472.585 888.314 469.139 890.267 466.899 890.892 L 462.663 890.892 L 457.671 888.939 C 455.7 887.663 453.33 885.154 451.976 883.349 L 449.858 879.39 L 446.169 866.585 L 445.248 853.729 L 440.092 864.085 C 439.111 866.065 440.587 868.174 439.771 870.709 C 438.408 874.902 433.486 882.949 429.84 885.953 C 427.322 888.028 424.605 889.087 421.81 889.208 C 418.849 889.33 415.004 887.958 412.53 886.335 C 410.29 884.859 408.545 882.289 407.321 880.258 C 406.323 878.591 405.637 877.185 405.368 875.267 C 405.038 872.827 405.524 869.224 406.236 866.69 L 409.057 860.83 C 410.316 859.024 411.974 858.425 413.728 855.951 C 417.443 850.69 422.912 837.79 427.504 828.71 L 414.049 825.784 L 389.959 817.755 C 378.422 813.909 366.997 808.214 356.971 802.129 C 347.561 796.408 338.593 790.539 331.31 782.648 L 320.892 771.363 L 313.895 760.998 L 312.211 761.38 L 292.679 780.912 L 284.38 786.503 L 271.358 792.579 L 254.595 796.538 L 264.084 805.601 L 272.765 809.942 L 279.492 811.895 L 294.146 812.867 C 290.127 824.734 283.868 840.074 282.097 848.459 C 281.168 852.878 280.786 856.654 281.177 858.825 L 282.262 861.108 C 286.802 860.326 290.708 860.344 295.882 858.772 C 303.357 856.489 317.828 847.843 322.247 846.94 L 325.129 847.001 L 324.634 873.53 L 327.238 888.288 L 331.744 900.172 C 336.666 896.006 341.18 892.872 346.501 887.689 C 353.785 880.597 362.561 869.676 370.591 860.674 L 376.069 877.654 L 384.75 896.752 L 393.431 910.642 L 404.665 922.743 C 409.873 918.003 414.873 914.409 420.29 908.524 C 427.47 900.719 435.378 888.887 442.913 879.06 L 446.334 881.178 L 453.712 891.162 L 462.394 899.843 L 471.509 906.249 L 476.231 900.225 L 485.78 880.258 Z M 396.53 803.266 C 390.757 799.811 384.307 793.395 379.22 792.901 C 375.514 792.545 372.527 795.323 369.185 796.538 L 370.86 798.656 C 372.284 799.733 375.349 801.399 377.588 801.478 C 379.776 801.556 381.964 799.993 384.16 799.255 L 382.207 803.049 C 383.847 804.264 385.488 806.191 387.137 806.686 C 388.474 807.086 389.777 806.886 391.157 806.469 L 396.53 803.266 Z M 402.824 800.662 C 406.817 801.512 411.496 803.769 414.813 803.214 C 417.443 802.762 419.223 800.531 421.428 799.194 L 413.945 796.373 L 408.84 796.373 L 405.585 797.458 L 402.824 800.662 Z M 452.74 803.049 L 448.669 799.845 L 445.361 801.53 L 448.938 807.285 L 452.74 803.049 Z M 416.653 806.686 C 418.103 807.841 419.396 809.855 420.994 810.159 C 422.582 810.454 424.535 808.648 426.202 808.527 L 430.491 809.238 L 434.727 802.398 L 430.439 800.714 L 424.466 800.714 C 422.695 801.052 420.794 801.634 419.474 802.667 C 418.216 803.656 417.599 805.349 416.653 806.686 Z M 475.901 800.175 L 474.816 803.214 L 476.283 804.681 L 479 802.398 L 475.901 800.175 Z M 471.24 797.241 L 461.795 802.45 C 462.576 804.247 462.94 806.877 464.13 807.823 C 465.067 808.57 466.517 808.257 467.715 808.474 C 466.899 809.646 465.701 810.523 465.267 811.999 C 464.703 813.952 465.449 816.956 465.545 819.439 C 466.786 819.161 468.114 819.508 469.286 818.623 C 471.309 817.086 474.122 811.895 474.66 808.474 C 475.146 805.341 473.922 800.8 472.976 798.977 L 471.24 797.241 Z M 416.28 810.862 C 413.762 808.639 411.549 805.098 408.736 804.186 C 406.132 803.353 402.668 804.273 400.159 805.054 C 397.963 805.74 396.287 807.19 394.36 808.257 C 398.024 810.046 402.182 812.893 405.368 813.631 C 407.599 814.143 409.5 814.108 411.34 813.631 C 413.129 813.162 414.63 811.782 416.28 810.862 Z M 446.88 823.232 C 446.082 821.783 444.484 820.341 444.493 818.892 C 444.493 817.433 446.542 816.001 446.933 814.499 C 447.288 813.119 447.453 811.686 446.933 810.263 C 446.229 808.353 443.642 806.391 441.993 804.464 C 441.073 805.818 439.554 807.12 439.224 808.527 C 438.929 809.785 439.588 811.131 439.771 812.433 L 437.488 812.867 C 437.201 814.855 436.324 817.017 436.619 818.84 C 436.897 820.524 437.991 822.147 438.955 823.449 L 442.045 826.436 L 444.328 826.653 C 445.283 826.227 446.03 824.369 446.88 823.232 Z M 481.492 804.464 C 479.625 805.601 476.969 806.235 475.901 807.875 C 474.851 809.499 475.363 812.112 475.094 814.23 L 482.256 812.494 C 482.343 810.297 482.924 807.294 482.525 805.922 L 481.492 804.464 Z M 604.381 836.853 L 614.581 840.542 C 616.994 841.41 619.512 841.141 622.29 840.542 C 625.91 839.752 631.11 838.181 634.226 835.117 L 642.525 826.922 L 648.116 817.755 L 650.069 811.131 C 643.741 811.999 633.011 812.277 631.075 813.735 L 630.485 815.098 L 633.358 818.623 L 629.287 819.76 C 626.995 819.803 623.54 818.857 620.875 817.755 L 604.928 811.131 C 603.07 810.358 600.891 809.968 598.955 810.263 C 596.95 810.575 594.424 811.877 593.095 813.084 L 591.142 816.339 C 590.743 817.807 590.708 819.604 591.142 821.444 C 591.724 823.892 593.234 827.087 595.214 829.526 C 597.462 832.304 600.7 835.516 604.381 836.853 Z M 414.978 815.419 C 417.269 816.557 419.509 818.284 421.862 818.84 C 424.084 819.36 426.419 818.84 428.702 818.84 L 430.169 813.032 L 425.933 811.409 C 423.989 811.131 421.141 811.244 419.257 811.999 C 417.556 812.685 416.401 814.282 414.978 815.419 Z M 452.844 826.383 L 456.751 823.449 L 459.086 818.84 C 459.468 817.225 459.52 815.602 459.086 813.735 C 458.478 811.174 456.23 807.988 454.798 805.115 C 453.365 806.825 450.978 808.292 450.509 810.263 C 450.032 812.303 451.924 814.768 452.141 817.208 L 451.655 825.62 L 452.844 826.383 Z M 721.523 831.262 C 720.664 832.182 719.275 832.625 717.834 832.781 C 715.958 832.99 712.746 832.764 711.158 831.644 C 709.708 830.62 708.545 828.206 708.397 826.705 C 708.276 825.55 708.753 824.352 709.422 823.501 C 710.142 822.607 711.314 821.826 712.677 821.548 C 714.613 821.166 718.406 821.539 720.169 822.633 C 721.592 823.527 722.782 825.298 722.99 826.757 C 723.19 828.18 722.452 830.255 721.523 831.262 Z M 213.195 992.24 L 213.412 979.54 C 213.464 976.52 209.462 973.22 209.393 971.41 L 210.209 969.4 C 211.659 970.09 213.273 970.37 214.549 971.46 C 216.077 972.77 217.423 975.18 218.404 977.16 C 219.324 979.04 220.444 980.96 220.357 983.02 L 219.871 994.8 L 223.882 995.99 L 238.587 995.93 L 240.975 994.85 C 241.912 993.86 242.607 991.56 242.928 989.86 C 243.24 988.19 243.414 986.38 242.928 984.75 L 240.106 975.42 L 234.351 969.89 L 236.035 968.21 L 240.975 970.21 C 243.032 971.58 245.558 973.97 247.051 976.29 C 248.492 978.54 249.994 981.18 249.873 983.88 L 249.386 994.8 L 252.529 995.99 L 266.15 995.72 L 269.839 992.46 L 269.839 982.15 L 265.768 974.07 L 257.139 967.94 L 258.606 966.47 C 261.41 967.42 264.552 967.94 267.018 969.34 C 269.353 970.68 271.402 972.29 273.094 974.55 C 275.082 977.23 277.079 981.43 277.652 984.75 C 278.147 987.69 276.497 991.74 276.949 993.38 C 277.148 994.13 277.374 994.83 277.973 994.85 L 288.069 995.06 C 290.318 995.11 292.193 992.68 293.061 990.51 C 294.241 987.56 293.669 981.56 292.193 978.02 C 290.804 974.71 287.349 971.79 284.866 969.73 C 282.904 968.09 280.63 968.22 278.902 966.15 C 276.098 962.77 273.971 954.386 272.548 949.055 C 271.358 944.585 271.141 940.626 270.438 936.416 L 263.215 934.949 L 257.851 931.745 C 263.215 930.209 268.641 929.445 273.963 927.136 C 279.805 924.592 285.413 921.129 291.325 916.719 C 298.53 911.336 308.939 901.179 313.513 896.37 C 315.779 893.983 317.507 892.524 318.236 890.675 C 318.765 889.312 318.566 888.375 318.453 886.656 C 318.245 883.531 316.074 877.984 315.953 873.53 L 315.632 860.943 L 299.355 867.454 L 288.069 870.058 L 278.624 870.058 C 276.714 870.058 274.622 868.313 273.633 867.237 L 272.548 864.849 L 272.548 852.8 L 280.039 825.35 L 272.765 833.919 L 249.274 869.459 L 234.516 884.217 L 214.115 900.277 C 210.799 902.89 209.428 906.874 207.657 911.18 C 205.434 916.597 205.13 923.967 202.778 930.608 C 200.121 938.1 193.984 945.453 192.031 953.717 L 189.209 965.65 L 190.295 983.56 L 195.017 991.86 C 195.955 993.51 197.934 994.16 199.844 994.85 C 202.179 995.67 206.077 996.13 208.204 995.93 L 211.459 994.85 C 212.258 994.23 213.178 993.28 213.195 992.24 Z M 605.466 846.402 C 601.473 843.667 596.742 841.497 593.477 838.207 C 590.37 835.082 587.236 831.54 586.151 827.304 L 583.876 818.406 L 581.324 819.543 C 580.248 820.402 579.023 821.869 578.338 823.501 C 577.487 825.533 577.062 828.545 577.2 831.045 C 577.339 833.571 578.268 836.41 579.206 838.589 C 580.004 840.447 580.725 841.949 582.192 843.416 C 584.093 845.308 587.123 848.355 590.274 848.355 L 600.587 848.355 L 605.466 846.402 Z M 443.243 837.608 L 443.998 834.787 L 442.696 834.57 L 443.243 837.608 Z M 456.317 849.822 C 457.55 846.741 459.503 843.268 460.006 840.594 C 460.371 838.667 460.449 836.914 459.954 835.438 C 459.503 834.101 458.253 833.163 457.402 832.026 L 451.438 835.386 L 453.009 838.042 C 453.582 840.004 452.506 844.327 453.33 846.402 C 453.938 847.93 455.318 848.676 456.317 849.822 Z M 702.156 869.19 C 698.961 869.763 693.405 869.372 690.323 868.105 C 687.893 867.098 685.983 865.196 684.629 863.382 C 683.413 861.75 682.528 859.849 682.293 857.904 C 682.05 855.83 682.641 853.382 683.378 851.281 L 686.851 845.204 L 692.059 840.863 L 697.051 838.91 L 703.024 838.91 L 708.015 840.863 L 711.974 843.85 C 713.042 845.126 713.866 846.628 714.309 848.459 C 714.873 850.829 714.882 854.501 714.309 857.036 C 713.806 859.233 712.634 861.273 711.488 862.896 L 708.015 866.368 C 706.392 867.514 704.517 868.764 702.156 869.19 Z M 438.087 852.427 C 439.302 849.909 441.22 847.088 441.724 844.883 L 441.724 840.646 C 441.437 838.65 440.873 835.672 439.771 833.919 C 438.816 832.417 437.201 831.644 435.916 830.507 L 432.496 835.655 C 432.114 836.783 431.871 837.834 432.279 838.806 L 438.087 852.427 Z M 499.618 855.135 C 496.336 850.491 492.352 846.393 489.791 841.193 C 487.065 835.637 485.633 824.743 484.044 822.633 L 482.794 821.826 C 481.553 821.713 478.419 823.258 476.769 824.369 C 475.346 825.333 474.087 826.201 473.297 827.842 C 472.16 830.212 471.231 834.717 472.16 837.99 L 475.033 848.138 C 475.676 850.378 477.125 852.383 478.506 854.215 L 483.228 859.042 C 484.678 860.118 486.067 861.16 487.786 861.429 C 489.756 861.741 492.517 861.299 494.461 860.292 C 496.475 859.25 497.899 856.854 499.618 855.135 Z M 433.746 860.24 C 434.649 858.894 436.177 857.844 436.463 856.22 C 436.819 854.163 435.734 850.986 434.562 848.676 L 430.491 840.707 L 428.155 842.6 C 427.192 844.058 425.282 847.114 426.202 849.223 L 429.892 857.687 L 433.746 860.24 Z M 689.238 857.036 C 689.412 858.295 690.141 859.371 691.191 860.292 C 692.641 861.55 695.541 863.278 697.815 863.113 C 700.419 862.922 704.17 860.361 705.897 858.174 C 707.434 856.229 708.51 853.06 708.232 851.064 C 707.998 849.44 706.774 847.912 705.411 846.94 C 703.84 845.829 701.166 844.77 699.004 845.204 C 696.287 845.751 692.259 849.336 690.705 851.663 C 689.577 853.356 689.03 855.508 689.238 857.036 Z M 470.102 869.572 L 466.413 868.921 L 465.545 866.421 L 468.418 865.5 C 468.488 864.163 469.095 862.618 468.635 861.481 C 468.158 860.318 465.961 859.918 465.545 858.608 C 465.007 856.949 467.133 854.363 466.899 851.932 C 466.595 848.815 464.043 845.022 462.611 841.575 L 458.322 854.432 L 464.243 864.033 L 462.072 865.231 C 460.284 866.967 457.836 872.497 455.718 876.135 C 457.367 878.253 459.095 881.187 460.657 882.48 L 463.531 883.948 L 467.168 883.349 C 468.566 882.619 470.189 880.831 471.022 879.39 C 471.743 878.123 472.212 876.786 472.16 875.319 C 472.099 873.556 470.788 871.482 470.102 869.572 Z M 431.142 871.525 C 431.992 870.674 433.243 870.067 433.694 868.973 C 434.206 867.731 434.25 865.648 433.694 864.302 C 433.121 862.922 431.576 861.655 430.222 860.83 L 425.612 859.371 L 426.914 857.088 C 427.001 855.786 425.612 853.833 424.961 852.21 L 423.815 852.149 C 422.851 852.644 421.072 855.439 420.342 857.357 C 419.605 859.311 419.77 861.629 419.474 863.764 L 431.142 871.525 Z M 455.614 870.926 L 459.954 862.349 L 452.462 849.657 C 452.679 855.873 451.733 865.049 453.113 868.322 C 453.721 869.754 454.78 870.058 455.614 870.926 Z M 1024.22 897.837 C 1022.47 898.775 1020.13 898.185 1018.25 897.837 C 1016.48 897.499 1014.53 897.143 1013.26 895.884 L 1006.31 888.939 C 1005.05 887.672 1004.7 885.718 1004.36 883.948 C 1004.01 882.072 1003.89 880.032 1004.36 877.975 C 1004.92 875.536 1006.57 872.463 1008.05 870.379 L 1012.39 866.039 C 1014.11 864.823 1016.24 863.677 1018.25 863.217 C 1020.19 862.774 1022.41 862.783 1024.22 863.217 C 1025.91 863.625 1027.7 864.25 1028.83 865.552 L 1035.29 872.983 C 1036.71 874.624 1037.65 876.829 1038.11 878.843 C 1038.56 880.779 1038.51 883.045 1038.11 884.816 L 1036.16 888.939 C 1035.23 890.424 1034.32 892.403 1032.69 893.28 L 1024.22 897.837 Z M 496.849 868.973 L 501.727 870.926 L 511.172 870.926 C 512.249 870.926 513.334 870.24 514.046 869.459 L 515.513 865.822 L 506.936 861.481 L 496.849 868.973 Z M 420.403 869.789 C 420.49 868.825 421.072 867.809 420.672 866.907 C 420.099 865.631 417.556 864.598 416.002 863.434 C 414.778 865.387 412.903 867.245 412.313 869.294 C 411.766 871.204 411.792 874.008 412.313 875.267 L 413.78 876.734 L 417.2 873.964 L 416.87 880.258 C 418.502 880.909 420.178 882.411 421.758 882.211 C 423.476 881.986 425.742 880.128 426.749 878.522 C 427.73 876.959 428.355 874.303 427.834 872.766 C 427.348 871.36 425.482 869.962 424.145 869.511 C 422.973 869.12 421.645 869.693 420.403 869.789 Z M 1022.32 869.572 C 1020 870.544 1017.29 870.848 1015.38 872.497 C 1013.24 874.338 1010.67 877.88 1010.5 880.527 C 1010.33 882.941 1012.09 885.927 1013.64 887.689 C 1015.04 889.278 1017.23 890.493 1019.07 890.944 C 1020.69 891.344 1022.43 891.17 1024.01 890.675 C 1025.69 890.146 1027.55 889.156 1028.83 887.689 C 1030.34 885.97 1032.08 882.689 1032.04 880.579 C 1031.99 878.869 1030.91 877.515 1029.7 875.97 C 1028.04 873.851 1024.78 871.699 1022.32 869.572 Z M 935.346 892.412 L 892.592 848.789 L 892.323 884.868 C 892.314 886.196 892.948 887.411 893.842 888.557 C 895.005 890.059 897.045 892.637 899.32 892.629 L 935.346 892.412 Z M 679.368 898.488 C 677.883 899.07 674.94 898.749 673.56 897.889 C 672.362 897.143 671.442 895.441 671.225 894.148 C 671.025 892.924 671.503 891.422 672.093 890.345 C 672.675 889.304 673.586 888.201 674.697 887.741 C 675.947 887.229 678.118 887.229 679.368 887.741 C 680.479 888.201 681.477 889.226 681.972 890.345 C 682.536 891.639 682.667 893.844 682.189 895.233 C 681.738 896.526 680.644 897.985 679.368 898.488 Z M 623.427 993.6 C 623.913 990.94 625.215 988.03 624.894 985.62 C 624.599 983.47 623.757 981.95 622.073 979.76 C 618.904 975.66 611.135 969.06 604.711 965 L 588.217 954.585 L 570.855 945.904 C 569.014 944.984 567.295 944.159 564.995 943.951 C 561.87 943.673 555.993 945.913 553.71 945.583 L 551.487 944.55 L 558.701 936.685 L 565.646 926.268 L 576.063 905.433 L 578.016 898.705 L 578.016 890.997 L 576.063 884.269 L 569.987 872.115 L 560.923 859.476 L 548.501 863.113 L 539.056 863.217 L 530.271 866.585 L 525.383 866.907 C 524.333 869.329 523.821 872.098 522.241 874.181 C 520.583 876.36 518.326 878.496 515.513 879.607 C 512.058 880.961 506.268 880.744 502.543 880.527 L 495.06 879.121 L 491.588 888.991 C 497.916 893.913 507.856 900.181 510.573 903.749 C 511.676 905.199 512.535 906.18 512.093 907.438 L 499.67 942.762 L 486.101 976.07 L 486.101 985.52 L 489.305 990.99 L 498.255 994.2 L 515.513 995.17 L 523.326 996.91 C 528.96 998.59 540.575 1004.11 546.001 1005.48 L 552.894 1006.4 L 566.731 1005.48 L 569.987 1004.4 L 573.459 1000.93 L 574.596 996.85 C 574.666 995.1 574.388 993.06 573.459 991.05 C 572.183 988.29 569.561 984.69 566.514 982.37 C 563.033 979.73 557.651 978.57 553.223 976.67 L 554.682 975.2 C 556.288 974.54 560.637 974.07 563.259 975.2 L 571.723 978.89 L 578.668 985.84 L 581.489 991.7 L 582.739 1000.87 C 585.795 1001.25 589.241 1002.44 591.906 1002.01 C 594.137 1001.64 596.559 1000.87 597.766 999.19 C 599.198 997.18 599.363 992.86 598.851 989.96 C 598.348 987.1 596.759 984.36 594.78 981.88 C 592.479 978.99 588.486 976.67 585.343 974.07 L 589.354 973.41 C 591.125 973.57 593.243 974.31 595.162 975.42 C 597.505 976.78 600.318 979.15 602.106 981.5 C 603.817 983.74 605.683 986.28 605.796 989.09 L 606.178 999.14 C 608.583 998.86 611.855 999.4 613.392 998.32 C 614.607 997.47 615.093 995.97 615.397 994.25 C 615.849 991.68 615.441 987.31 614.26 984.1 C 612.984 980.65 609.841 977.59 607.636 974.33 C 609.268 974.7 611.004 974.6 612.524 975.42 C 614.286 976.38 615.979 978.11 617.35 980.14 C 619.078 982.69 620.892 987.51 621.422 989.96 L 621.526 993.33 L 623.427 993.6 Z M 695.914 923.715 L 709.804 909.826 L 712.677 908.359 C 714.231 908.02 716.714 907.716 718.433 908.576 C 720.533 909.635 722.843 912.986 723.858 915.304 C 724.7 917.239 725.178 919.314 724.726 921.276 L 722.773 929.74 L 718.433 938.421 C 717.33 940.626 715.577 942.623 713.71 944.116 C 711.878 945.574 709.508 946.807 707.364 947.319 C 705.394 947.788 703.163 947.719 701.392 947.319 L 697.268 945.366 C 695.532 944.133 693.275 942.006 692.059 940.157 C 691.026 938.577 690.236 936.841 690.106 935.166 C 689.985 933.542 690.445 931.945 691.191 930.278 C 692.146 928.16 694.004 925.625 695.914 923.715 Z M 925.042 986.17 C 925.033 988.86 922.316 991.09 920.319 992.73 C 918.349 994.34 915.779 995.99 913.157 995.99 L 772.524 995.99 L 768.453 994.85 C 766.612 993.88 764.13 991.84 762.758 990.13 C 761.612 988.69 760.423 987.24 760.423 985.52 L 760.371 926.537 L 761.508 922.465 C 762.281 920.964 763.461 919.288 764.98 918.125 C 766.725 916.797 769.234 915.243 771.656 915.251 L 915.492 915.521 C 918.592 915.529 921.265 919.132 922.923 921.111 C 924.156 922.587 925.259 924.002 925.259 925.721 L 925.042 986.17 Z M 970.721 930.278 L 977.18 922.847 C 978.734 921.059 980.904 919.714 983.526 919.644 C 987.658 919.54 996.704 924.757 999.699 926.806 L 1002.3 929.41 C 1003.22 930.886 1004.32 933.169 1004.31 935.218 L 1004.26 947.319 C 1004.25 949.481 1002.65 951.46 1001.43 953.179 C 1000.25 954.846 999.039 956.226 997.094 957.519 C 994.386 959.316 989.212 961.69 986.078 962.03 C 983.873 962.26 982.059 961.67 980.271 960.99 L 975.444 958.006 C 974.011 956.851 972.709 955.827 971.589 954.047 C 970.027 951.556 968.369 946.885 967.848 943.899 L 967.9 937.874 C 968.351 935.452 968.95 932.318 970.721 930.278 Z M 715.012 914.713 L 711.54 916.771 L 698.136 931.146 L 697.112 933.482 C 697.138 934.758 698.518 936.867 699.386 938.039 L 701.609 940.157 C 702.685 940.617 704.213 940.826 705.628 940.374 C 707.703 939.706 710.472 937.44 712.356 934.949 C 714.743 931.78 717.408 925.617 717.781 922.144 C 718.025 919.887 717.373 917.673 716.696 916.389 L 715.012 914.713 Z M 787.551 954.047 L 787.282 940.426 L 788.419 938.091 C 790.624 938.022 792.977 937.319 795.043 937.874 C 797.144 938.447 799.748 939.828 800.903 941.564 C 802.04 943.283 802.404 946.121 801.988 948.187 C 801.562 950.288 799.696 952.919 798.298 954.047 L 795.095 955.184 C 793.133 955.375 790.069 954.429 787.551 954.047 Z M 898.347 983.78 C 901.42 983.78 904.485 981.81 906.811 980.09 C 908.973 978.48 911.985 976.68 912.02 974.01 L 912.237 954.368 L 908.817 952.58 C 905.648 951.877 898.834 953.014 893.842 953.231 L 892.323 956.92 L 893.46 960.99 L 901.551 962.46 C 901.638 964.65 902.592 967.31 901.82 969.02 C 901.108 970.58 899.216 971.89 897.479 972.49 C 895.552 973.17 892.392 972.91 890.639 972.49 L 887.765 971.03 L 883.911 966.2 L 882.774 962.13 L 882.826 949.16 C 882.834 946.729 884.327 944.185 885.647 942.432 C 886.802 940.904 888.486 939.732 889.988 938.959 L 894.059 937.822 L 898.998 938.959 C 901.238 940.036 903.66 942.614 905.995 944.446 C 907.879 943.178 910.709 942.006 911.638 940.644 C 912.237 939.767 912.498 938.951 912.237 937.874 C 911.742 935.869 908.313 932.041 905.943 930.278 C 903.903 928.768 901.507 928.073 899.216 927.457 C 896.984 926.858 894.901 926.346 892.375 926.589 C 889.093 926.91 884.362 928.273 881.306 930.278 C 878.424 932.188 876.115 935.062 874.362 938.091 C 872.513 941.303 870.672 945.271 870.672 949.16 L 870.672 962.08 L 873.494 972.28 C 874.483 975.83 878.155 978.62 880.82 980.58 C 883.069 982.23 885.404 983.78 888.034 983.78 L 898.347 983.78 Z M 997.094 933.751 L 984.941 926.806 C 984.194 926.381 983.344 926.658 982.389 927.188 C 980.357 928.325 976.008 932.961 974.845 936.138 C 973.855 938.855 974.237 942.137 974.845 944.715 C 975.409 947.059 976.546 949.437 978.048 951.061 C 979.472 952.589 981.633 953.865 983.474 954.316 C 985.097 954.716 986.833 954.542 988.413 954.047 C 990.097 953.518 991.782 952.293 993.24 951.061 C 994.759 949.776 997.346 948.5 997.311 946.451 L 997.094 933.751 Z M 787.013 981.83 L 787.612 965.93 C 792.326 965.44 798.047 965.68 801.771 964.46 C 804.488 963.57 806.675 962.09 808.334 960.61 L 811.32 956.651 C 812.162 955.132 813.273 953.448 813.273 951.66 L 813.273 941.347 C 813.273 939.558 812.266 937.961 811.32 936.355 C 810.252 934.549 808.698 932.492 806.979 931.146 C 805.286 929.836 803.134 928.95 801.12 928.325 L 795.095 927.405 C 791.77 927.162 786.414 926.962 782.994 927.457 L 776.266 929.41 C 776.396 947.05 774.087 977.32 776.648 982.31 C 777.203 983.4 777.802 983.49 778.653 983.78 L 782.941 983.83 L 787.013 981.83 Z M 861.288 982.31 L 861.67 929.41 L 857.599 927.405 L 854.178 927.457 C 853.032 927.787 851.748 928.004 850.923 929.41 C 848.614 933.36 850.35 949.238 850.055 959.143 L 832.641 928.924 C 831.842 927.535 829.646 927.483 828.083 927.405 C 826.477 927.327 824.142 927.752 823.143 928.542 L 822.006 930.877 L 822.275 981.83 C 822.284 982.85 823.638 983.41 824.663 983.78 C 825.982 984.25 828.335 984.31 829.767 983.78 C 831.078 983.28 832.206 982.66 833.022 980.96 C 835.097 976.6 833.639 962.26 833.943 952.91 L 851.305 982.31 C 851.982 983.46 853.579 983.73 854.994 983.83 C 856.791 983.97 859.187 982.82 861.288 982.31 Z M 797.916 1030.06 L 782.724 1030.06 L 782.724 1013.13 C 787.134 1012.91 793.228 1011.86 795.963 1012.48 C 797.309 1012.78 798.116 1012.95 798.784 1014 C 800.139 1016.14 800.052 1024.5 799.435 1027.24 L 797.916 1030.06 Z M 817.127 1029.52 L 817.449 1013.13 C 821.859 1012.91 827.953 1011.86 830.687 1012.48 C 832.033 1012.78 832.84 1012.95 833.509 1014 C 834.863 1016.14 834.776 1024.5 834.16 1027.24 C 833.856 1028.58 833.682 1029.4 832.641 1030.06 C 830.592 1031.36 823.005 1031.13 820.27 1030.71 L 817.127 1029.52 Z M 867.695 1029.52 L 864.543 1030.71 C 861.809 1031.13 856.296 1030.28 852.173 1030.06 L 851.852 1013.68 L 854.994 1012.48 C 857.729 1012.05 863.241 1012.91 867.365 1013.13 L 867.695 1029.52 Z M 903.287 1029.52 L 900.136 1030.71 L 888.902 1030.66 L 886.576 1029.52 L 886.897 1013.13 C 891.958 1013.13 899.771 1011.95 902.089 1013.13 C 903.027 1013.61 903.573 1014.31 903.556 1015.14 L 903.287 1029.52 Z M 987.814 1040.26 L 983.743 1039.12 C 982.198 1038.21 980.158 1036.5 979.402 1034.78 C 978.682 1033.11 978.838 1030.74 979.185 1029.03 L 981.139 1024.9 C 982.666 1022.47 984.941 1017.61 988.084 1016.22 C 991.539 1014.7 998.553 1015.52 1001.43 1017.09 C 1003.4 1018.17 1004.81 1020.43 1005.12 1022.08 C 1005.38 1023.44 1004.94 1024.53 1004.04 1026.1 C 1002.17 1029.34 994.612 1036.66 991.504 1038.74 L 987.814 1040.26 Z M 984.672 1031.36 L 988.465 1033.86 L 998.779 1022.36 L 990.688 1021.43 L 984.672 1031.36 Z M 710.62 1039.12 C 709.378 1039.77 707.199 1039.63 705.949 1039.12 C 704.838 1038.66 703.84 1037.64 703.345 1036.52 C 702.781 1035.22 702.65 1033.02 703.128 1031.63 C 703.579 1030.34 704.743 1028.93 705.949 1028.37 C 707.217 1027.8 709.37 1027.86 710.62 1028.37 C 711.731 1028.83 712.746 1029.91 713.224 1030.98 C 713.719 1032.1 713.797 1033.7 713.441 1035 C 713.033 1036.43 711.896 1038.44 710.62 1039.12 Z M 816.146 1050.03 L 800.633 1050.35 L 800.633 1034.51 L 816.146 1034.83 L 816.146 1050.03 Z M 850.332 1050.35 L 834.811 1050.03 L 834.811 1034.83 L 850.332 1034.51 L 850.332 1050.35 Z M 885.057 1050.35 L 869.214 1050.35 L 869.214 1034.51 L 885.057 1034.51 L 885.057 1050.35 Z M 685.662 1062.78 C 684.134 1063.27 682.701 1063.12 681.425 1062.78 L 678.17 1060.82 C 676.286 1059.21 672.709 1055.53 671.876 1053.23 C 671.338 1051.72 671.572 1050.36 671.876 1048.99 L 673.829 1044.87 C 675.548 1042.63 679.342 1038.33 682.293 1037.71 C 684.854 1037.17 688.058 1038.39 690.271 1040.04 C 692.78 1041.91 695.41 1046.51 696.079 1048.99 C 696.487 1050.52 696.27 1051.7 695.862 1053.01 L 693.205 1057.3 C 691.443 1059.19 687.919 1062.04 685.662 1062.78 Z M 784.356 1050.35 C 781.587 1050.44 777.663 1051.11 776.049 1050.62 C 775.285 1050.39 774.547 1050.16 774.53 1049.54 L 774.312 1040.31 L 775.458 1037.98 L 784.356 1037.98 L 784.356 1050.35 Z M 1026.61 1066.9 L 1023.46 1067.12 C 1021.45 1066.82 1018.15 1065.64 1015.86 1064.3 C 1013.6 1062.96 1010.52 1061.08 1009.79 1059.09 C 1009.18 1057.42 1009.72 1055.4 1010.65 1053.55 C 1011.97 1050.95 1016.5 1046.67 1018.47 1045.74 L 1020.75 1045.52 L 1026.61 1048.34 C 1028.48 1049.55 1031 1050.7 1031.82 1052.68 C 1032.76 1054.97 1031.65 1059.35 1030.95 1061.69 L 1028.83 1065.65 L 1026.61 1066.9 Z M 690.002 1049.86 C 688.934 1048.32 688.066 1046.21 686.799 1045.25 C 685.774 1044.48 684.411 1043.91 683.326 1044.06 C 682.241 1044.2 681.13 1045.16 680.288 1046.12 L 678.014 1050.68 L 681.156 1055.23 L 683.925 1056.7 L 690.002 1049.86 Z M 1025.96 1055.07 L 1019.99 1051.6 L 1015.71 1056.75 L 1024.22 1061.04 L 1025.96 1055.07 Z M 880.768 841.732 L 761.291 841.515 C 757.949 841.515 754.459 843.424 751.959 845.204 C 749.736 846.793 747.957 848.998 746.75 851.281 C 745.561 853.538 744.745 856.22 744.745 858.825 L 744.745 1057.62 L 747.618 1066.9 C 748.53 1069.83 751.959 1071.63 754.563 1072.98 C 757.089 1074.28 760.093 1074.98 762.975 1074.98 L 924.443 1074.98 C 927.681 1074.98 931.214 1073.62 933.723 1072.11 C 935.902 1070.79 937.594 1068.96 938.931 1066.9 C 940.329 1064.74 941.805 1062.05 941.805 1059.36 L 941.753 904.018 L 940.069 903.098 L 897.583 903.046 C 895.153 903.037 892.896 901.57 890.856 900.225 C 888.729 898.81 886.645 896.778 885.161 894.634 C 883.685 892.507 881.966 890.05 881.958 887.42 L 881.905 844.067 L 880.768 841.732 Z" style=""/>
</svg>